<svg xmlns="http://www.w3.org/2000/svg" viewBox="0 0 32 32">
  <title>[icons_32_pt1]</title>
  <g id="account-history">
    <path id="circle" d="M22.5,19A4.5,4.5,0,1,0,27,23.5,4.5,4.5,0,0,0,22.5,19Zm0,8A3.5,3.5,0,1,1,26,23.5,3.5,3.5,0,0,1,22.5,27Z"/>
    <polygon id="clockHands" points="23 23 23 21 22 21 22 23 22 24 23 24 25 24 25 23 23 23"/>
    <polygon id="doc" points="21.41 4 6 4 6 28 17 28 17 26 8 26 8 6 21 6 21 9 24 9 24 18 26 18 26 8.59 21.41 4"/>
    <path id="body" d="M16,23a6.49,6.49,0,0,1,4.16-5.57,4,4,0,0,0-1.58-1.66l-.41-.24-.27.39c-.9,1.33-1.55,1.61-1.94,1.61s-1-.28-1.94-1.61l-.27-.39-.41.24c-2,1.2-2.17,3.16-2.17,5.24a7.29,7.29,0,0,0,.06.92l0,.33.32.09A16.15,16.15,0,0,0,16,23Z"/>
    <path id="head" d="M18.37,12A2.56,2.56,0,0,0,16,10.24a2.48,2.48,0,0,0-1.84.86,2.56,2.56,0,0,0-.65,1.9c.09,1.24,1.41,2.76,2.49,2.76S18.35,14.4,18.49,13A2.42,2.42,0,0,0,18.37,12Z"/>
  </g>
</svg>
