<svg xmlns="http://www.w3.org/2000/svg" viewBox="0 0 24 24">
  <defs>
    <style>
      .cls-1 {
        fill-rule: evenodd;
      }
    </style>
  </defs>
  <title>[icons_24_pt1]</title>
  <g id="at-sign">
    <path id="shape" class="cls-1" d="M9.73,12.38q0,2.28,1.79,2.28t2.06-2.86l.12-2.33a5,5,0,0,0-1.32-.17,2.41,2.41,0,0,0-1.95.83A3.39,3.39,0,0,0,9.73,12.38Zm10-1.24a7.14,7.14,0,0,1-.44,2.55,4.15,4.15,0,0,1-1.24,1.8,2.84,2.84,0,0,1-1.84.64,2.22,2.22,0,0,1-1.34-.41,2,2,0,0,1-.76-1.11H14a3.19,3.19,0,0,1-1.18,1.14,3.27,3.27,0,0,1-1.58.38,3.18,3.18,0,0,1-2.5-1,4,4,0,0,1-.91-2.77A4.51,4.51,0,0,1,9.07,9.07a4.31,4.31,0,0,1,3.25-1.25A11.48,11.48,0,0,1,14,8a9.39,9.39,0,0,1,1.61.37l-.21,4.54v.23q0,1.56,1,1.56.77,0,1.23-1a6.14,6.14,0,0,0,.45-2.54,6.08,6.08,0,0,0-.68-2.93,4.73,4.73,0,0,0-1.94-1.95,6,6,0,0,0-2.89-.68,7.3,7.3,0,0,0-3.62.86A5.71,5.71,0,0,0,6.57,8.87a8.08,8.08,0,0,0-.81,3.71,5.92,5.92,0,0,0,1.51,4.36,5.86,5.86,0,0,0,4.35,1.52,12.8,12.8,0,0,0,4.5-.88v1.6a11.66,11.66,0,0,1-4.46.84A7.78,7.78,0,0,1,6,18.07a7.19,7.19,0,0,1-2-5.43A9.25,9.25,0,0,1,5.09,8.1a7.5,7.5,0,0,1,3-3A9,9,0,0,1,12.52,4a7.92,7.92,0,0,1,3.77.88,6.24,6.24,0,0,1,2.57,2.5A7.54,7.54,0,0,1,19.77,11.14Z"/>
  </g>
</svg>
