<svg xmlns="http://www.w3.org/2000/svg" viewBox="0 0 24 24">
  <defs>
    <style>
      .cls-1 {
        fill-rule: evenodd;
      }
    </style>
  </defs>
  <title>[icons_24_pt1]</title>
  <g id="attachment">
    <path id="shape" class="cls-1" d="M8.59,12.35a3,3,0,0,0,4.24,4.24l5.66-5.66a4.77,4.77,0,0,0,.35-6.72,4.77,4.77,0,0,0-6.72.35L5.76,10.94a6,6,0,0,0,8.49,8.49l4.24-4.24-1.41-1.41L12.83,18a4,4,0,0,1-5.66-5.66L13.54,6a2.78,2.78,0,0,1,3.89-.35,2.78,2.78,0,0,1-.35,3.89l-5.66,5.66A1,1,0,1,1,10,13.77l3.54-3.54L12.12,8.82Z"/>
  </g>
</svg>
