<svg xmlns="http://www.w3.org/2000/svg" width="24" height="24" viewBox="0 0 24 24"><path d="M14.874,17.75a.7442.7442,0,0,1-.4179-.1279l-2.4991-1.68-2.5,1.68a.7493.7493,0,0,1-1.1543-.4776L7.7246,14.19,4.7686,13.61a.7493.7493,0,0,1-.4776-1.1543l1.68-2.4991-1.68-2.5a.75.75,0,0,1,.4776-1.1543l2.956-.5781.5781-2.956a.75.75,0,0,1,.4493-.5479.7386.7386,0,0,1,.705.07l2.5,1.68,2.4991-1.68a.7431.7431,0,0,1,.705-.0713.7529.7529,0,0,1,.4493.5489l.5791,2.956,2.955.5781a.7493.7493,0,0,1,.4776,1.1543l-1.68,2.5,1.68,2.4991a.7493.7493,0,0,1-.4776,1.1543l-2.955.5791-.5791,2.955a.7487.7487,0,0,1-.7364.6055Zm-2.917-3.4609a.7485.7485,0,0,1,.418.1279l1.98,1.331.459-2.3418a.7505.7505,0,0,1,.5917-.5917l2.3418-.459-1.331-1.98a.7455.7455,0,0,1,0-.8359l1.331-1.9815L15.4062,7.1a.7508.7508,0,0,1-.5917-.5918l-.459-2.3428-1.98,1.3311a.7491.7491,0,0,1-.8359,0L9.5576,4.165,9.1,6.5078A.751.751,0,0,1,8.5078,7.1l-2.3428.458L7.4961,9.5391a.7455.7455,0,0,1,0,.8359l-1.3311,1.98,2.3428.459a.7508.7508,0,0,1,.5918.5917l.458,2.3418,1.9815-1.331A.7479.7479,0,0,1,11.957,14.2891Z"/><polygon points="11.249 12.591 9.204 10.546 9.883 9.867 11.249 11.234 14.321 8.162 15 8.84 11.249 12.591"/><path d="M17,21.75a.7364.7364,0,0,1-.3076-.0664L12,19.5723,7.3076,21.6836a.7381.7381,0,0,1-.7148-.0537A.75.75,0,0,1,6.25,21V16a.75.75,0,0,1,1.5,0v3.84l3.9424-1.7734a.7506.7506,0,0,1,.6152,0L16.25,19.84V16a.75.75,0,0,1,1.5,0v5a.75.75,0,0,1-.75.75Z"/></svg>