<svg xmlns="http://www.w3.org/2000/svg" viewBox="0 0 32 32">
  <title>[icons_32_pt1]</title>
  <g id="bna-insights">
    <path id="s" d="M27,21.59c0,.46.48.76,1.09.76s1-.3,1-.72-.25-.58-.82-.72l-.54-.14c-.78-.2-1.12-.54-1.12-1.12s.62-1.2,1.49-1.2a1.33,1.33,0,0,1,1.47,1.21H29a.85.85,0,0,0-1-.73c-.55,0-.93.28-.93.7s.23.51.81.66l.44.12c.88.22,1.23.56,1.23,1.16,0,.77-.61,1.26-1.58,1.26a1.4,1.4,0,0,1-1.57-1.23Z"/>
    <path id="t" d="M24,22.75V19H22.59v-.47h3.25V19H24.48v3.75Z"/>
    <path id="h" d="M21.27,22.75V20.83H19v1.92h-.53V18.52H19v1.83h2.32V18.52h.53v4.23Z"/>
    <path id="g" d="M15.72,22.82a2,2,0,0,1-1.94-2.21,1.92,1.92,0,0,1,1.94-2.16,1.7,1.7,0,0,1,1.77,1.38h-.55a1.2,1.2,0,0,0-1.21-.9c-.87,0-1.39.63-1.39,1.67s.53,1.72,1.39,1.72A1.17,1.17,0,0,0,17,21.14v-.08H15.79V20.6h1.72V21A1.66,1.66,0,0,1,15.72,22.82Z"/>
    <path id="i2" d="M12.36,22.75V18.52h.53v4.23Z"/>
    <path id="s-2" data-name="s" d="M8.76,21.59c0,.46.48.76,1.09.76s1-.3,1-.72-.25-.58-.82-.72l-.54-.14c-.78-.2-1.12-.54-1.12-1.12s.62-1.2,1.49-1.2a1.33,1.33,0,0,1,1.47,1.21h-.53a.85.85,0,0,0-1-.73c-.55,0-.93.28-.93.7s.23.51.81.66l.44.12c.88.22,1.23.56,1.23,1.16,0,.77-.61,1.26-1.58,1.26a1.4,1.4,0,0,1-1.57-1.23Z"/>
    <path id="n2" d="M4,22.75V18.52h.51l2.31,3.32h0V18.52h.52v4.23H6.86L4.55,19.44h0v3.31Z"/>
    <path id="i1" d="M2.41,22.75V18.52h.53v4.23Z"/>
    <path id="a" d="M26.85,16.47l-.42-1.36H23.31l-.42,1.36H20.63L23.78,8H26l3.12,8.47Zm-2-6.45-1,3.57h2.15Z"/>
    <path id="n1" d="M17,16.47l-3-5.06v5.06H12V8h2.05L17,13.16V8h2v8.47Z"/>
    <path id="b" d="M3,8H6.84c2.23,0,3,1,3,2.22A1.94,1.94,0,0,1,8,12.12a2.06,2.06,0,0,1,2.13,2c0,1.56-1.39,2.38-3.12,2.38H3Zm3.51,3.35c.46,0,1.26,0,1.26-.91s-.71-.85-1.12-.85H4.91v1.76Zm-.12,3.59c.68,0,1.63,0,1.63-1s-.85-1-1.28-1H4.91v2.05Z"/>
  </g>
</svg>
