<svg xmlns="http://www.w3.org/2000/svg" viewBox="0 0 32 32">
  <title>icons_32_pt2</title>
  <g id="bna-picks">
    <path id="b" d="M3,8H6.84c2.23,0,3,1,3,2.22A1.94,1.94,0,0,1,8,12.12a2.06,2.06,0,0,1,2.13,2c0,1.56-1.39,2.38-3.12,2.38H3Zm3.51,3.35c.46,0,1.26,0,1.26-.91s-.71-.85-1.12-.85H4.91v1.76Zm-.12,3.59c.68,0,1.63,0,1.63-1s-.85-1-1.28-1H4.91v2.05Z"/>
    <path id="n" d="M17,16.47l-3-5.06v5.06H12V8h2.05L17,13.16V8h2v8.47Z"/>
    <path id="a" d="M26.85,16.47l-.42-1.36H23.31l-.42,1.36H20.63L23.78,8H26l3.12,8.47Zm-2-6.45-1,3.57h2.15Z"/>
    <path id="p" d="M8.88,21a1.66,1.66,0,0,1-.59,1.37,2.58,2.58,0,0,1-1.67.48H6V25H5.1V19.29H6.74a2.49,2.49,0,0,1,1.6.44A1.57,1.57,0,0,1,8.88,21ZM6,22.08h.5a1.77,1.77,0,0,0,1.05-.25A.91.91,0,0,0,7.92,21a.89.89,0,0,0-.3-.73,1.49,1.49,0,0,0-.94-.24H6Z"/>
    <path id="i" d="M10.34,25V19.29h.93V25Z"/>
    <path id="c" d="M15.37,20a1.54,1.54,0,0,0-1.27.57,2.44,2.44,0,0,0-.46,1.57,2.45,2.45,0,0,0,.44,1.59,1.57,1.57,0,0,0,1.28.54,3.39,3.39,0,0,0,.7-.07c.23,0,.46-.11.71-.19v.8a4.3,4.3,0,0,1-1.52.25,2.43,2.43,0,0,1-1.93-.76,3.18,3.18,0,0,1-.67-2.17A3.51,3.51,0,0,1,13,20.59a2.33,2.33,0,0,1,.94-1,2.86,2.86,0,0,1,1.45-.36,3.61,3.61,0,0,1,1.62.37l-.34.78a5.1,5.1,0,0,0-.61-.24A2.19,2.19,0,0,0,15.37,20Z"/>
    <path id="k" d="M22.69,25H21.61l-1.79-2.59-.55.45V25h-.93V19.29h.93V22l2.3-2.73h1.06l-2.14,2.5Z"/>
    <path id="s" d="M26.9,23.45a1.44,1.44,0,0,1-.55,1.2,2.4,2.4,0,0,1-1.52.43,3.63,3.63,0,0,1-1.59-.3v-.88a4.34,4.34,0,0,0,.83.29,3.52,3.52,0,0,0,.82.11,1.3,1.3,0,0,0,.82-.21.69.69,0,0,0,.26-.57.71.71,0,0,0-.24-.54,3.65,3.65,0,0,0-1-.53,2.65,2.65,0,0,1-1.1-.72,1.53,1.53,0,0,1-.32-1,1.37,1.37,0,0,1,.51-1.12,2.11,2.11,0,0,1,1.36-.41,4,4,0,0,1,1.63.36l-.3.76A3.56,3.56,0,0,0,25.16,20a1,1,0,0,0-.69.2.65.65,0,0,0-.23.52.73.73,0,0,0,.09.38,1,1,0,0,0,.31.3,5.22,5.22,0,0,0,.77.37,4.24,4.24,0,0,1,.92.49,1.43,1.43,0,0,1,.43.51A1.54,1.54,0,0,1,26.9,23.45Z"/>
  </g>
</svg>
