<svg xmlns="http://www.w3.org/2000/svg" viewBox="0 0 32 32">
  <defs>
    <style>
      .cls-1 {
        fill-rule: evenodd;
      }
    </style>
  </defs>
  <title>[icons_32_pt1]</title>
  <g id="book-shelf">
    <rect id="title3" x="17" y="15" width="2" height="3"/>
    <rect id="title2" x="12" y="15" width="2" height="3"/>
    <rect id="title1" x="7" y="15" width="2" height="3"/>
    <path id="books" class="cls-1" d="M26,4h-.83l-.84,1H12a1,1,0,0,0-1-1H10L4.71,9.29A2.77,2.77,0,0,0,4,11V26a2,2,0,0,0,2,2H22l5.29-5.29A2.77,2.77,0,0,0,28,21V6A2,2,0,0,0,26,4ZM15,6l-5,5h1l5-5h4l-5,5h1l5-5H23.5L20.64,9.4a3.2,3.2,0,0,0-.6,1.37,3.44,3.44,0,0,1-.56.6A2.31,2.31,0,0,1,18,12a2.31,2.31,0,0,1-1.49-.63A2,2,0,0,1,16,11H15a2,2,0,0,1-.51.37A2.31,2.31,0,0,1,13,12a2.31,2.31,0,0,1-1.49-.63A2,2,0,0,1,11,11H10a2,2,0,0,1-.51.37A2.31,2.31,0,0,1,8,12a2.31,2.31,0,0,1-1.49-.63,3.6,3.6,0,0,1-.44-.45L11,6h4Zm-2,7.6a3.2,3.2,0,0,0,2-.77V21h-.08c-.1,0-.51.51-.51.51a2.41,2.41,0,0,1-1.49.7,2.26,2.26,0,0,1-1.49-.59,1.85,1.85,0,0,1-.43-.25V12.83A3.2,3.2,0,0,0,13,13.6Zm-7-.77c1,.48,1.26.77,2,.77a3.19,3.19,0,0,0,2-.77V21H9.92c-.1,0-.51.51-.51.51a2.41,2.41,0,0,1-1.49.7,2.26,2.26,0,0,1-1.49-.59c-.18-.16-.43-.27-.43-.41Zm5,9.75a3.16,3.16,0,0,0,1.92.71A3.24,3.24,0,0,0,15,22.45V26H11Zm5-9.74a3,3,0,0,0,4,0V21a3.45,3.45,0,0,1-.6.65,2.31,2.31,0,0,1-1.49.63,2.31,2.31,0,0,1-1.49-.63,2.81,2.81,0,0,1-.43-.29ZM6,22.57a3.16,3.16,0,0,0,1.92.71A3.24,3.24,0,0,0,10,22.45V26H6S6,24.56,6,22.57ZM16,26V22.57a3.16,3.16,0,0,0,1.92.71A3.24,3.24,0,0,0,20,22.45V26Zm6-1V11l4-4.8V21Z"/>
  </g>
</svg>
