<svg xmlns="http://www.w3.org/2000/svg" viewBox="0 0 32 32">
  <title>icons_32_pt2</title>
  <g id="box">
    <polygon id="lineR3" points="19 20 24 17.95 24 19.03 19 21.08 19 20"/>
    <polygon id="lineR2" points="19 17.57 24 15.56 24 16.64 19 18.65 19 17.57"/>
    <polygon id="lineR1" points="19 15.19 24 13.24 24 14.31 19 16.26 19 15.19"/>
    <polygon id="lineL3" points="13 20 8 17.95 8 19.03 13 21.08 13 20"/>
    <polygon id="lineL2" points="13 17.57 8 15.56 8 16.64 13 18.65 13 17.57"/>
    <polygon id="lineL1" points="13 15.19 8 13.24 8 14.31 13 16.26 13 15.19"/>
    <path id="box-2" data-name="box" d="M15.68,4.11l-11,3.67A1,1,0,0,0,4,8.72V23.28a1,1,0,0,0,.68.95l11,3.67a1,1,0,0,0,.63,0l11-3.67a1,1,0,0,0,.68-.95V8.72a1,1,0,0,0-.68-.95l-11-3.67A1,1,0,0,0,15.68,4.11ZM15,25.56l-9-3V9.77l9,3Zm11-3-9,3V12.77l9-3Z"/>
  </g>
</svg>
