<svg xmlns="http://www.w3.org/2000/svg" viewBox="0 0 32 32">
  <defs>
    <style>
      .cls-1 {
        fill-rule: evenodd;
      }
    </style>
  </defs>
  <title>icons_32_pt2</title>
  <g id="calendar">
    <path id="calendar-2" data-name="calendar" class="cls-1" d="M25,5H22a1,1,0,0,0-2,0H12a1,1,0,0,0-2,0H7A3,3,0,0,0,4,8V25a3,3,0,0,0,3,3H25a3,3,0,0,0,3-3V8A3,3,0,0,0,25,5ZM7,7h3V8a1,1,0,0,0,2,0V7h8V8a1,1,0,0,0,2,0V7h3a1,1,0,0,1,1,1v3H6V8A1,1,0,0,1,7,7ZM25,26H7a1,1,0,0,1-1-1V12H26V25A1,1,0,0,1,25,26Z"/>
    <polygon id="_1" data-name="1" class="cls-1" points="17 24 15 24 15 17 13 17 15 14 17 14 17 24"/>
  </g>
</svg>
