<svg xmlns="http://www.w3.org/2000/svg" viewBox="0 0 32 32">
  <title>icons_32_pt2</title>
  <g id="certificate">
    <path d="M26,26H6a2,2,0,0,1-2-2V8A2,2,0,0,1,6,6H26a2,2,0,0,1,2,2V24A2,2,0,0,1,26,26Zm0-2v0ZM6,8V24H26V8Z"/>
    <path d="M23,16.5a2.5,2.5,0,1,0-4,2v2.24l1.5-1.22L22,20.72V18.49A2.49,2.49,0,0,0,23,16.5ZM20.5,18A1.5,1.5,0,1,1,22,16.5,1.5,1.5,0,0,1,20.5,18Z"/>
    <rect x="10" y="12" width="9" height="1"/>
    <rect x="10" y="14" width="6" height="1"/>
    <rect x="10" y="16" width="6" height="1"/>
    <path d="M23.46,23H8.54l-.1-.37a1.49,1.49,0,0,0-1.07-1.07L7,21.46V10.54l.37-.1A1.49,1.49,0,0,0,8.45,9.37L8.54,9H23.46l.1.37a1.49,1.49,0,0,0,1.07,1.07l.37.1V21.46l-.37.1a1.49,1.49,0,0,0-1.07,1.07ZM9.28,22H22.72A2.5,2.5,0,0,1,24,20.72V11.28A2.5,2.5,0,0,1,22.72,10H9.28A2.5,2.5,0,0,1,8,11.28v9.43A2.5,2.5,0,0,1,9.28,22Z"/>
    <rect x="10" y="18" width="2" height="1"/>
  </g>
</svg>
