<svg xmlns="http://www.w3.org/2000/svg" viewBox="0 0 24 24">
  <title>[icons_24_pt1]</title>
  <g id="collapse">
    <path id="innerBox" d="M17.5,16h-9a.5.5,0,0,1-.5-.5v-9A.5.5,0,0,1,8.5,6H13V4H7.33A1.33,1.33,0,0,0,6,5.33V16.66A1.34,1.34,0,0,0,7.34,18H18.66A1.34,1.34,0,0,0,20,16.66V11H18v4.5A.5.5,0,0,1,17.5,16Z"/>
    <path id="outerBox" d="M16,19H5V6A1,1,0,0,0,4,7V19a1,1,0,0,0,1,1H17a1,1,0,0,0,1-1H16Z"/>
    <polygon id="upArrow" points="13 10 9 10 9 11 12 11 9.5 13.5 10.5 14.5 13 12 13 15 14 15 14 11 14 10 13 10"/>
    <polygon id="downArrow" points="17 8 19.5 5.5 18.5 4.5 16 7 16 4 15 4 15 8 15 9 16 9 20 9 20 8 17 8"/>
  </g>
</svg>
