<svg xmlns="http://www.w3.org/2000/svg" viewBox="0 0 32 32">
  <title>icons_32_pt2</title>
  <g id="congress-history">
    <path id="circle" d="M23.5,7A4.5,4.5,0,1,0,28,11.5,4.5,4.5,0,0,0,23.5,7Zm0,8A3.5,3.5,0,1,1,27,11.5,3.5,3.5,0,0,1,23.5,15Z"/>
    <polygon id="clockHands" points="24 11 24 9 23 9 23 11 23 12 24 12 26 12 26 11 24 11"/>
    <rect id="window4" x="25" y="21" width="1" height="2"/>
    <rect id="window3" x="23" y="21" width="1" height="2"/>
    <rect id="window2" x="8" y="21" width="1" height="2"/>
    <rect id="window1" x="6" y="21" width="1" height="2"/>
    <path id="building" d="M26,19V18H24v1H22V16.79a5.5,5.5,0,0,1-3-2.13V16H13V13h5.21a5.44,5.44,0,0,1,.4-4A4,4,0,0,0,17,8.14V7h-.5V5h-1V7H15V8.14A4,4,0,0,0,12,12H11v4H10v3H8V18H6v1H3v7H29V19ZM16,10a2,2,0,0,1,2,2H14A2,2,0,0,1,16,10ZM11,24H4V20h7Zm3,0H12V20h2Zm3,0H15V20h2Zm3,0H18V20h2Zm0-5H12V17h8Zm8,5H21V20h7Z"/>
  </g>
</svg>
