<svg xmlns="http://www.w3.org/2000/svg" viewBox="0 0 24 24">
  <title>[icons_24_pt1]</title>
  <g id="customize">
    <polygon id="control3Bottom" points="16 8 16 10 17 10 17 20 19 20 19 10 20 10 20 8 16 8"/>
    <rect id="control3Top" x="17" y="4" width="2" height="3"/>
    <polygon id="control2Bottom" points="10 11 10 13 11 13 11 20 13 20 13 13 14 13 14 11 10 11"/>
    <rect id="control2Top" x="11" y="4" width="2" height="6"/>
    <polygon id="control1Bottom" points="4 14 4 16 5 16 5 20 7 20 7 16 8 16 8 14 4 14"/>
    <rect id="control1Top" x="5" y="4" width="2" height="9"/>
  </g>
</svg>
