<svg xmlns="http://www.w3.org/2000/svg" viewBox="0 0 32 32">
  <title>icons_32_pt2</title>
  <g id="deal-info">
    <path id="circle" d="M24.5,17A4.5,4.5,0,1,0,29,21.5,4.5,4.5,0,0,0,24.5,17Zm0,8A3.5,3.5,0,1,1,28,21.5,3.5,3.5,0,0,1,24.5,25Z"/>
    <rect id="iLine" x="24" y="21" width="1" height="3"/>
    <rect id="iDot" x="24" y="19" width="1" height="1"/>
    <path id="handshake" d="M18,21.5a6.5,6.5,0,0,1,.13-1.28l-.35-.87-.93.37,1,2.6-1,.41L12.75,17H9.24L9,17.34V10l1.28-2h1l-.16.22A5.42,5.42,0,0,0,10,11.5a.5.5,0,0,0,.15.35,2.45,2.45,0,0,0,3.13.06,4.51,4.51,0,0,0,1.22-1.21c.36-.48.52-.71,1.5-.71a2,2,0,0,1,2,1.21l2.45,5.17a6.51,6.51,0,0,1,.84-.56l-2.36-5A3,3,0,0,0,16,9a2.35,2.35,0,0,0-2.31,1.11,3.54,3.54,0,0,1-1,1,1.52,1.52,0,0,1-1.72.17,4.61,4.61,0,0,1,.91-2.48A6,6,0,0,1,13.63,7h5.63L23,11.68v3.51A6.48,6.48,0,0,1,24.5,15l.5,0V12h2v3.5a6.51,6.51,0,0,1,2,1.32V10H23v.07L19.89,6.19A.5.5,0,0,0,19.5,6h-6a.5.5,0,0,0-.22.05,5.28,5.28,0,0,0-1.2.95H9.72L7.85,10H3V22H7.63l6.32,4.06L17,24.84V23.78l1.25-.53A6.47,6.47,0,0,1,18,21.5ZM7,20H5V12H7Zm2-.94L9.76,18h1.31L9,21.1Zm.56,3,2.69-4,.67.92L10.25,22.5Zm1.53,1,2.44-3.26.69.94-2.12,3ZM16,24.16l-1.95.78-1.1-.71,1.9-2.65L16,23.16Z"/>
    <path id="finger" d="M19.05,18l-.37-.64-.87.5L18.5,19A6.49,6.49,0,0,1,19.05,18Z"/>
  </g>
</svg>
