<svg xmlns="http://www.w3.org/2000/svg" viewBox="0 0 32 32">
  <title>[icons_32_pt1]</title>
  <g id="deal">
    <path id="shape" d="M23,10v.07L19.89,6.19A.5.5,0,0,0,19.5,6h-6a.5.5,0,0,0-.22.05,5.28,5.28,0,0,0-1.2.95H9.72L7.85,10H3V22H7.63l6.32,4.06L17,24.84V23.78l6-2.53V22h6V10ZM13.63,7h5.63L23,11.68v7.66l-4-8.49A3,3,0,0,0,16,9a2.35,2.35,0,0,0-2.31,1.11,3.54,3.54,0,0,1-1,1,1.52,1.52,0,0,1-1.72.17,4.61,4.61,0,0,1,.91-2.48A6,6,0,0,1,13.63,7ZM10.28,8h1l-.16.22A5.42,5.42,0,0,0,10,11.5a.5.5,0,0,0,.15.35,2.45,2.45,0,0,0,3.13.06,4.51,4.51,0,0,0,1.22-1.21c.36-.48.52-.71,1.5-.71a2,2,0,0,1,2,1.21l4.36,9.2-1.57.66-2.15-3.76-.87.5,2.09,3.66-1.1.46-1-2.58-.93.37,1,2.6-1,.41L12.75,17H9.24L9,17.34V10ZM9,19.06,9.76,18h1.31L9,21.1Zm3.26-1,.67.92L10.25,22.5l-.69-.44Zm1.28,1.76.69.94-2.12,3-1-.65ZM5,12H7v8H5ZM16,24.16l-1.95.78-1.1-.71,1.9-2.65L16,23.16ZM27,20H25V12h2Z"/>
  </g>
</svg>
