<svg xmlns="http://www.w3.org/2000/svg" viewBox="0 0 32 32">
  <title>[icons_32_pt1]</title>
  <g id="dislike">
    <path id="shape" d="M28.2,15.88,26.37,6.76A3.55,3.55,0,0,0,23,4H15a3.75,3.75,0,0,0-2.42,1l-2,2H4V19h6.7l2.38,1.58.79,5.57A2.19,2.19,0,0,0,16,28a4,4,0,0,0,4-4V21h4a4.15,4.15,0,0,0,4.21-5.12ZM6,9H9v8H6Zm19.83,9.21A2.31,2.31,0,0,1,24,19H18v5a2,2,0,0,1-2,2,.21.21,0,0,1-.15-.13l-.92-6.45L11.3,17H10V9h1.41L14,6.42A1.84,1.84,0,0,1,15,6h8a1.55,1.55,0,0,1,1.42,1.16l1.82,9.12A2.29,2.29,0,0,1,25.83,18.21Z"/>
  </g>
</svg>
