<svg xmlns="http://www.w3.org/2000/svg" viewBox="0 0 24 24">
  <title>[icons_24_pt1]</title>
  <g id="dislike">
    <path id="shape" d="M20.68,11.82l-1-4.92A3.24,3.24,0,0,0,16.5,4H12A3.77,3.77,0,0,0,9.58,5l-1,1H3v8H8.51l1.1,1.4.52,3.75a1.68,1.68,0,0,0,.92,1.33,1.54,1.54,0,0,0,.66.15,1.76,1.76,0,0,0,.87-.24A4,4,0,0,0,15,17V16h2a3.77,3.77,0,0,0,2.79-1.25A3.71,3.71,0,0,0,20.68,11.82ZM5,12V8H7v4Zm13.31,1.42A1.77,1.77,0,0,1,17,14H13L13,17a1.88,1.88,0,0,1-1,1.4l-.53-3.8-2-2.6H8V8H9.41L11,6.42A1.82,1.82,0,0,1,12,6H16.5a1.29,1.29,0,0,1,1.22,1.2l1,4.92A1.69,1.69,0,0,1,18.31,13.42Z"/>
  </g>
</svg>
