<svg xmlns="http://www.w3.org/2000/svg" viewBox="0 0 32 32">
  <defs>
    <style>
      .cls-1 {
        fill-rule: evenodd;
      }
    </style>
  </defs>
  <title>[icons_32_pt1]</title>
  <g id="doc-edit">
    <rect id="line8" x="9" y="22" width="5" height="2"/>
    <rect id="line7" x="9" y="20" width="5" height="1"/>
    <rect id="line6" x="9" y="18" width="6" height="1"/>
    <rect id="line5" x="9" y="16" width="8" height="1"/>
    <rect id="line4" x="9" y="14" width="10" height="1"/>
    <rect id="line3" x="9" y="12" width="12" height="1"/>
    <rect id="line2" x="9" y="10" width="12" height="1"/>
    <rect id="line1" x="9" y="8" width="9" height="1"/>
    <path id="pencil" d="M24.68,11.59l-7.07,7.07-2.42,5.25,5.1-2.32,7.22-7.17a1.38,1.38,0,0,0,.18-1.94l-1.06-1.06A1.38,1.38,0,0,0,24.68,11.59Zm-4.89,9.13-1.06.48-.84-.84.48-1.06L24,13.71l1.41,1.41ZM27,13.18c.06.06,0,.31-.18.53l-.71.71L24.68,13l.71-.71c.22-.22.47-.24.53-.18Z"/>
    <polygon id="doc" class="cls-1" points="23 21 23 26 7 26 7 6 20 6 20 9 23 9 23 10 25 10 25 7.59 21.41 4 5 4 5 28 25 28 25 21 23 21"/>
  </g>
</svg>
