<svg xmlns="http://www.w3.org/2000/svg" viewBox="0 0 32 32">
  <title>[icons_32_pt1]</title>
  <g id="doc-annotation">
    <rect id="quoteline3" x="18" y="17" width="4" height="1"/>
    <rect id="quoteline2" x="18" y="15" width="7" height="1"/>
    <rect id="quoteline1" x="18" y="13" width="6" height="1"/>
    <path id="quote" d="M26,11H17a1,1,0,0,0-1,1v7a1,1,0,0,0,1,1h3v3l4-3h2a1,1,0,0,0,1-1V12A1,1,0,0,0,26,11Zm0,8H23.5L21,21V19H17V12h9Z"/>
    <rect id="line8" x="9" y="22" width="10" height="2"/>
    <rect id="line7" x="9" y="20" width="5" height="1"/>
    <rect id="line6" x="9" y="18" width="5" height="1"/>
    <rect id="line5" x="9" y="16" width="5" height="1"/>
    <rect id="line4" x="9" y="14" width="5" height="1"/>
    <rect id="line3" x="9" y="12" width="5" height="1"/>
    <rect id="line2" x="9" y="10" width="6" height="1"/>
    <rect id="line1" x="9" y="8" width="9" height="1"/>
    <polygon id="doc-2" data-name="doc" points="23 26 7 26 7 6 20 6 20 9 23 9 23 10 25 10 25 8.59 20.41 4 5 4 5 28 25 28 25 22 23 22 23 26"/>
  </g>
</svg>
