<svg xmlns="http://www.w3.org/2000/svg" viewBox="0 0 24 24">
  <title>[icons_24_pt1]</title>
  <g id="doc-edit">
    <path id="pencil" d="M7,16v2h5l3.31-1.2,5-5a1.34,1.34,0,0,0,.39-.95,1.36,1.36,0,0,0-.39-1l-.93-1a1.37,1.37,0,0,0-1.89,0l-5.33,5.24L11.71,16Zm12.32-5.11-5,5-1.18.24L13.34,15l5-5Z"/>
    <rect id="line5" x="7" y="14" width="3" height="1"/>
    <rect id="line4" x="7" y="12" width="5" height="1"/>
    <rect id="line3" x="7" y="10" width="7" height="1"/>
    <rect id="line2" x="7" y="8" width="9" height="1"/>
    <rect id="line1" x="7" y="6" width="7" height="1"/>
    <polygon id="doc" points="15.79 3 4 3 4 21 19 21 19 17 17 17 17 19 6 19 6 5 15 5 15 7 17 7 17 8 19 8 19 7 19 6 15.79 3"/>
  </g>
</svg>
