<svg xmlns="http://www.w3.org/2000/svg" viewBox="0 0 32 32">
  <title>icons_32_pt2</title>
  <g id="doc-money">
    <path id="dollar" d="M26,14H13a1,1,0,0,0-1,1v7a1,1,0,0,0,1,1H26a1,1,0,0,0,1-1V15A1,1,0,0,0,26,14ZM13,15h1.29L13,16.29Zm0,7V20.71L14.29,22Zm13,0H24.71L26,20.71Zm0-3-3,3H16l-3-3V18l3-3h7l3,3Zm0-2.71L24.71,15H26Z"/>
    <path id="_" data-name="$" d="M19.94,17.94a5.57,5.57,0,0,1-.53-.2,1,1,0,0,1-.27-.16.23.23,0,0,1-.08-.18.21.21,0,0,1,.11-.19.79.79,0,0,1,.37-.06,3.07,3.07,0,0,1,1.24.31l.39-.94a3.86,3.86,0,0,0-1.32-.32v-.44h-.68v.45a1.85,1.85,0,0,0-1,.38,1.07,1.07,0,0,0-.35.85,1.35,1.35,0,0,0,.12.59,1.2,1.2,0,0,0,.37.43,2.63,2.63,0,0,0,.67.35l.59.23a1.49,1.49,0,0,1,.31.17.24.24,0,0,1,0,.41.91.91,0,0,1-.41.07,2.87,2.87,0,0,1-.79-.13,4.74,4.74,0,0,1-.83-.32v1.09a3.91,3.91,0,0,0,1.39.32v.61h.68v-.63a1.7,1.7,0,0,0,1-.43,1.2,1.2,0,0,0,.35-.9,1.11,1.11,0,0,0-.3-.8A2.57,2.57,0,0,0,19.94,17.94Z"/>
    <rect id="line8" x="9" y="22" width="2" height="1"/>
    <rect id="line7" x="9" y="20" width="2" height="1"/>
    <rect id="line6" x="9" y="18" width="2" height="1"/>
    <rect id="line5" x="9" y="16" width="2" height="1"/>
    <rect id="line4" x="9" y="14" width="2" height="1"/>
    <rect id="line3" x="9" y="12" width="12" height="1"/>
    <rect id="line2" x="9" y="10" width="12" height="1"/>
    <rect id="line1" x="9" y="8" width="9" height="1"/>
    <polygon id="doc" points="25 13 25 8.59 20.41 4 5 4 5 28 25 28 25 24 23 24 23 26 7 26 7 6 20 6 20 9 23 9 23 13 25 13"/>
  </g>
</svg>
