<svg xmlns="http://www.w3.org/2000/svg" viewBox="0 0 32 32">
  <title>icons_32_pt2</title>
  <g id="doc-scales">
    <path id="scale" d="M28,18a3.13,3.13,0,0,1-3,.36V17H20V14l1-1-1.5-3L18,13l1,1v3H14v1.36A3,3,0,0,1,11,18v1a2.81,2.81,0,0,0,1.86.82L11,24v1a2.83,2.83,0,0,0,4,0V24l-1.86-4.18A2.81,2.81,0,0,0,15,19V18h4v8H17v1H15v1h9V27H22V26H20V18h4v1a2.81,2.81,0,0,0,1.86.82L24,24v1a2.83,2.83,0,0,0,4,0V24l-1.86-4.18A2.81,2.81,0,0,0,28,19ZM14,24H12l1-2Zm13,0H25l1-2Z"/>
    <rect id="line5" x="9" y="16" width="3" height="1"/>
    <rect id="line4" x="9" y="14" width="7" height="1"/>
    <rect id="line3" x="9" y="12" width="7" height="1"/>
    <rect id="line2" x="9" y="10" width="8" height="1"/>
    <rect id="line1" x="9" y="8" width="9" height="1"/>
    <polygon id="doc" points="7 6 20 6 20 9 23 9 23 16 25 16 25 8.59 20.41 4 5 4 5 28 10 28 10 26 7 26 7 6"/>
  </g>
</svg>
