<svg xmlns="http://www.w3.org/2000/svg" viewBox="0 0 32 32">
  <title>[icons_32_pt1]</title>
  <g id="doc-microscope">
    <rect id="line8" x="9" y="22" width="6" height="1"/>
    <rect id="line7" x="9" y="20" width="6" height="1"/>
    <rect id="line6" x="9" y="18" width="7" height="1"/>
    <rect id="line5" x="9" y="16" width="8" height="1"/>
    <rect id="line4" x="9" y="14" width="9" height="1"/>
    <rect id="line3" x="9" y="12" width="11" height="1"/>
    <rect id="line2" x="9" y="10" width="12" height="1"/>
    <rect id="line1" x="9" y="8" width="9" height="1"/>
    <rect id="microscopeBack" x="25.25" y="10.45" width="1" height="3" transform="translate(-0.91 21.71) rotate(-45)"/>
    <path id="microscope" d="M26.19,23a4.29,4.29,0,0,0,1.56-3.5,4.24,4.24,0,0,0-3.09-4.35l1.65-1.65-2.12-2.12-5.5,5.5.86.86-.91.91.71.71.91-.91.55.55,3-3a3.24,3.24,0,0,1,3,3.48A3.59,3.59,0,0,1,23,23H20V21h2V20H17v1h2v2H17v1H28V23Zm-5.38-5.41-.71-.71,4.09-4.09.71.71Z"/>
    <polygon id="doc" points="25 10 25 8.59 20.41 4 5 4 5 28 25 28 25 27 25 26 25 25 23 25 23 26 7 26 7 6 20 6 20 9 23 9 23 10 25 10"/>
  </g>
</svg>
