<svg xmlns="http://www.w3.org/2000/svg" viewBox="0 0 32 32">
  <title>[icons_32_pt1]</title>
  <g id="doc-laws_32">
    <rect id="line8" x="9" y="22" width="2" height="1"/>
    <rect id="line7" x="9" y="20" width="1" height="1"/>
    <rect id="line6" x="9" y="18" width="1" height="1"/>
    <rect id="line5" x="9" y="16" width="2" height="1"/>
    <rect id="line4" x="9" y="14" width="4" height="1"/>
    <rect id="line3" x="9" y="12" width="6" height="1"/>
    <rect id="line2" x="9" y="10" width="8" height="1"/>
    <rect id="line1" x="9" y="8" width="9" height="1"/>
    <polygon id="doc" points="23 26 7 26 7 6 20 6 20 9 23 9 23 10 25 10 25 7.59 21.41 4 5 4 5 28 23 28 23 26"/>
    <path id="gavel" d="M28,25.17l-5.3-5.3-.71.71-1.41-1.41,2.83-2.83-.23-.23L23.8,16l1.06-.35s.35-1.77-1.77-3.89S19.2,10,19.2,10L18.85,11l-.12.59-.23-.23-6.36,6.36.23.23-.59.12-1.06.35s-.35,1.77,1.77,3.89,3.89,1.77,3.89,1.77L16.73,23l.12-.59.23.23,2.83-2.83,1.41,1.41-.71.71,5.3,5.3A1.5,1.5,0,1,0,28,25.17ZM19.82,11.29a3.15,3.15,0,0,1,2.52,1.19A3.2,3.2,0,0,1,23.54,15l-1.18.23-2.77-2.77ZM15.76,22.78a3.13,3.13,0,0,1-2.52-1.19A3.16,3.16,0,0,1,12,19.07l1.18-.23L16,21.61Zm1.33-1.5-3.63-3.54,5-5L22,16.33Z"/>
  </g>
</svg>
