<svg xmlns="http://www.w3.org/2000/svg" viewBox="0 0 32 32">
  <title>[icons_32_pt1]</title>
  <g id="doc-checklist">
    <rect id="list3" x="20" y="20" width="5" height="1"/>
    <rect id="list2" x="20" y="18" width="5" height="1"/>
    <rect id="list1" x="20" y="16" width="5" height="1"/>
    <circle id="bullet3" cx="18.5" cy="20.5" r="0.5"/>
    <circle id="bullet2" cx="18.5" cy="18.5" r="0.5"/>
    <circle id="bullet1" cx="18.5" cy="16.5" r="0.5"/>
    <path id="table" d="M26,12H17a1,1,0,0,0-1,1V23H27V13A1,1,0,0,0,26,12Zm0,10H17V15h9Zm-9-8V13h9v1Z"/>
    <rect id="line8" x="9" y="22" width="5" height="1"/>
    <rect id="line7" x="9" y="20" width="5" height="1"/>
    <rect id="line6" x="9" y="18" width="5" height="1"/>
    <rect id="line5" x="9" y="16" width="5" height="1"/>
    <rect id="line4" x="9" y="14" width="5" height="1"/>
    <rect id="line3" x="9" y="12" width="5" height="1"/>
    <rect id="line2" x="9" y="10" width="12" height="1"/>
    <rect id="line1" x="9" y="8" width="9" height="1"/>
    <polygon id="doc-2" data-name="doc" points="23 26 7 26 7 6 20 6 20 9 23 9 23 11 25 11 25 8.59 20.41 4 5 4 5 28 25 28 25 24 23 24 23 26"/>
  </g>
</svg>
