<svg xmlns="http://www.w3.org/2000/svg" viewBox="0 0 32 32">
  <title>icons_32_pt2</title>
  <g id="doc-international">
    <path id="globe" d="M21.5,17A5.5,5.5,0,1,0,27,22.5,5.5,5.5,0,0,0,21.5,17ZM20,18.28A6.1,6.1,0,0,0,18.61,20h-.85A4.51,4.51,0,0,1,20,18.28ZM17.28,21h.94A5.31,5.31,0,0,0,18,22h-1A4.45,4.45,0,0,1,17.28,21Zm0,3a4.45,4.45,0,0,1-.23-1h1a5.19,5.19,0,0,0,.19,1Zm.49,1h.87a5.84,5.84,0,0,0,1.51,1.77A4.51,4.51,0,0,1,17.76,25ZM21,26.63A6,6,0,0,1,19.68,25H21ZM21,24H19.25a5,5,0,0,1-.2-1h2Zm0-2H19a5,5,0,0,1,.2-1H21Zm0-2H19.69A6.14,6.14,0,0,1,21,18.38Zm4.72,1a4.45,4.45,0,0,1,.23,1H25a5.26,5.26,0,0,0-.19-1Zm-.49-1h-.86A6.18,6.18,0,0,0,23,18.28,4.51,4.51,0,0,1,25.24,20ZM22,18.38A6.21,6.21,0,0,1,23.31,20H22ZM22,21h1.75a5,5,0,0,1,.2,1H22Zm0,2h2a5,5,0,0,1-.2,1H22Zm0,3.63V25h1.31A6.09,6.09,0,0,1,22,26.63Zm.85.14A5.91,5.91,0,0,0,24.37,25h.87A4.5,4.5,0,0,1,22.85,26.77ZM25.72,24h-.94A5.15,5.15,0,0,0,25,23h1A4.45,4.45,0,0,1,25.72,24Z"/>
    <rect id="line8" x="9" y="22" width="5" height="1"/>
    <rect id="line7" x="9" y="20" width="5" height="1"/>
    <rect id="line6" x="9" y="18" width="6" height="1"/>
    <rect id="line5" x="9" y="16" width="8" height="1"/>
    <rect id="line4" x="9" y="14" width="12" height="1"/>
    <rect id="line3" x="9" y="12" width="12" height="1"/>
    <rect id="line2" x="9" y="10" width="12" height="1"/>
    <rect id="line1" x="9" y="8" width="9" height="1"/>
    <polygon id="doc" points="7 6 20 6 20 9 23 9 23 16 25 16 25 8.59 20.41 4 5 4 5 28 15 28 15 26 7 26 7 6"/>
  </g>
</svg>
