<svg xmlns="http://www.w3.org/2000/svg" viewBox="0 0 32 32">
  <defs>
    <style>
      .cls-1 {
        fill-rule: evenodd;
      }
    </style>
  </defs>
  <title>[icons_32_pt1]</title>
  <g id="docs-related_32">
    <path id="bottomDoc" class="cls-1" d="M26,21H22a1,1,0,0,0-1,1v5a1,1,0,0,0,1,1h5a1,1,0,0,0,1-1V23.08Zm1,6H22s0-5,0-5h3v2h2Z"/>
    <path id="bottomArrow" class="cls-1" d="M16,24H9.51A.5.5,0,0,1,9,23.5V22H7v1.5A2.51,2.51,0,0,0,9.51,26H16v2l4-3-4-3Z"/>
    <path id="topDoc" class="cls-1" d="M22,11h5a1,1,0,0,0,1-1V6.08L26,4H22a1,1,0,0,0-1,1v5A1,1,0,0,0,22,11Zm0-6h3V7h2v3H22Z"/>
    <path id="topArrow" class="cls-1" d="M16,6H9.51A2.51,2.51,0,0,0,7,8.5V10H9V8.5A.5.5,0,0,1,9.51,8H16v2l4-3L16,4Z"/>
    <path id="mainDoc" class="cls-1" d="M14,19.58V14l-3-3H5.44A1.43,1.43,0,0,0,4,12.43v7.13A1.42,1.42,0,0,0,5.43,21h7.13A1.42,1.42,0,0,0,14,19.58ZM5,20V12h5v3h3v5S5,20,5,20Z"/>
  </g>
</svg>
