<svg xmlns="http://www.w3.org/2000/svg" viewBox="0 0 24 24">
  <title>[icons_24_pt1]</title>
  <g id="doctype-rtf">
    <polygon id="f" points="18 11 18 16 19 16 19 14 21 14 21 13 19 13 19 12 22 12 22 11 18 11"/>
    <polygon id="t" points="12 11 12 12 14 12 14 16 15 16 15 12 17 12 17 11 12 11"/>
    <path id="r" d="M11,12.5A1.5,1.5,0,0,0,9.5,11H7v5H8V14h.5A1.5,1.5,0,0,1,10,15.5V16h1v-.5a2.49,2.49,0,0,0-.71-1.73A1.5,1.5,0,0,0,11,12.5ZM8,13V12H9.5a.5.5,0,0,1,0,1H8Z"/>
    <polygon id="doc" points="14.79 3 3 3 3 21 18 21 18 19 18 18 16 18 16 19 5 19 5 5 14 5 14 7 16 7 16 9 18 9 18 6 14.79 3"/>
  </g>
</svg>
