<svg xmlns="http://www.w3.org/2000/svg" viewBox="0 0 24 24">
  <title>[icons_24_pt1]</title>
  <g id="doctype-pdf">
    <polygon id="f" points="17 11 17 16 18 16 18 14 20 14 20 13 18 13 18 12 21 12 21 11 17 11"/>
    <path id="d" d="M14,11H12v5h2a2,2,0,0,0,2-2V13A2,2,0,0,0,14,11Zm1,3a1,1,0,0,1-1,1H13V12h1a1,1,0,0,1,1,1Z"/>
    <path id="p" d="M9.5,11H7v5H8V14H9.5a1.5,1.5,0,0,0,0-3Zm0,2H8V12H9.5a.5.5,0,0,1,0,1Z"/>
    <polygon id="doc" points="14.79 3 3 3 3 21 18 21 18 19 18 18 16 18 16 19 5 19 5 5 14 5 14 7 16 7 16 9 18 9 18 6 14.79 3"/>
  </g>
</svg>
