<svg xmlns="http://www.w3.org/2000/svg" viewBox="0 0 24 24">
  <title>icons_24_pt2</title>
  <g id="doctype-pdm">
    <path id="doc" d="M21,9V6a3,3,0,0,0-3-3H6A3,3,0,0,0,3,6V21H21V18H19v1H5V8H19V9ZM5,7V6A1,1,0,0,1,6,5H18a1,1,0,0,1,1,1V7Z"/>
    <path id="d" d="M14,11H12v5h2a2,2,0,0,0,2-2V13A2,2,0,0,0,14,11Zm1,3a1,1,0,0,1-1,1H13V12h1a1,1,0,0,1,1,1Z"/>
    <path id="p" d="M9.5,11H7v5H8V14H9.5a1.5,1.5,0,0,0,0-3Zm0,2H8V12H9.5a.5.5,0,0,1,0,1Z"/>
    <polygon id="m" points="20.9 11 19.5 13 18.1 11 17 11 17 16 18 16 18 12.5 19 14 20 14 21 12.5 21 16 22 16 22 11 20.9 11"/>
  </g>
</svg>
