<svg xmlns="http://www.w3.org/2000/svg" viewBox="0 0 24 24">
  <title>[icons_24_pt1]</title>
  <g id="doctype-sgm">
    <polygon id="m" points="20.9 11 19.5 13 18.1 11 17 11 17 16 18 16 18 12.5 19 14 20 14 21 12.5 21 16 22 16 22 11 20.9 11"/>
    <path id="g" d="M14.5,12H16V11H14.5a2.5,2.5,0,0,0,0,5H16V13H14v1h1v1h-.5a1.5,1.5,0,0,1,0-3Z"/>
    <path id="s" d="M8.5,12H11V11H8.5a1.5,1.5,0,0,0,0,3h1a.5.5,0,0,1,0,1H7v1H9.5a1.5,1.5,0,0,0,0-3h-1a.5.5,0,0,1,0-1Z"/>
    <polygon id="doc" points="14.79 3 3 3 3 21 18 21 18 18 16 18 16 19 5 19 5 5 14 5 14 7 16 7 16 9 18 9 18 6 14.79 3"/>
  </g>
</svg>
