<svg xmlns="http://www.w3.org/2000/svg" viewBox="0 0 24 24">
  <title>[icons_24_pt1]</title>
  <g id="doctype-xls">
    <path id="s" d="M19.5,12H22V11H19.5a1.5,1.5,0,0,0,0,3h1a.5.5,0,0,1,0,1H18v1h2.5a1.5,1.5,0,0,0,0-3h-1a.5.5,0,0,1,0-1Z"/>
    <polygon id="l" points="14 15 14 11 13 11 13 16 17 16 17 15 14 15"/>
    <polygon id="x" points="12 11 10.9 11 9.5 12.79 8.1 11 7 11 8.95 13.5 7 16 8.1 16 9.5 14.21 10.9 16 12 16 10.05 13.5 12 11"/>
    <path id="doc" d="M21,9V6a3,3,0,0,0-3-3H6A3,3,0,0,0,3,6V21H21V18H19v1H5V8H19V9ZM5,7V6A1,1,0,0,1,6,5H18a1,1,0,0,1,1,1V7Z"/>
  </g>
</svg>
