<svg xmlns="http://www.w3.org/2000/svg" viewBox="0 0 24 24">
  <title>[icons_24_pt1]</title>
  <g id="doctype-htm">
    <polygon id="m" points="20.9 11 19.5 13 18.1 11 17 11 17 16 18 16 18 12.5 19 14 20 14 21 12.5 21 16 22 16 22 11 20.9 11"/>
    <polygon id="t" points="11 11 11 12 13 12 13 16 14 16 14 12 16 12 16 11 11 11"/>
    <polygon id="h" points="9 11 9 13 7 13 7 11 6 11 6 16 7 16 7 14 9 14 9 16 10 16 10 11 9 11"/>
    <polygon id="doc" points="14.79 3 3 3 3 21 18 21 18 18 16 18 16 19 5 19 5 5 14 5 14 7 16 7 16 9 18 9 18 6 14.79 3"/>
  </g>
</svg>
