<svg xmlns="http://www.w3.org/2000/svg" viewBox="0 0 24 24">
  <title>[icons_24_pt1]</title>
  <g id="doctype-doc">
    <path id="c" d="M21,15H19.5a1.5,1.5,0,0,1,0-3H21V11H19.5a2.5,2.5,0,0,0,0,5H21Z"/>
    <path id="o" d="M14.5,16h-1A1.5,1.5,0,0,1,12,14.5v-2A1.5,1.5,0,0,1,13.5,11h1A1.5,1.5,0,0,1,16,12.5v2A1.5,1.5,0,0,1,14.5,16Zm-1-4a.5.5,0,0,0-.5.5v2a.5.5,0,0,0,.5.5h1a.5.5,0,0,0,.5-.5v-2a.5.5,0,0,0-.5-.5Z"/>
    <path id="d" d="M9,11H7v5H9a2,2,0,0,0,2-2V13A2,2,0,0,0,9,11Zm1,3a1,1,0,0,1-1,1H8V12H9a1,1,0,0,1,1,1Z"/>
    <polygon id="doc" points="14.79 3 3 3 3 21 18 21 18 18 16 18 16 19 5 19 5 5 14 5 14 7 16 7 16 9 18 9 18 6 14.79 3"/>
  </g>
</svg>
