<svg xmlns="http://www.w3.org/2000/svg" viewBox="0 0 24 24">
  <title>[icons_24_pt1]</title>
  <g id="doctype-csv">
    <polygon id="v" points="21 11 19.5 14.75 18 11 17 11 19 16 20 16 22 11 21 11"/>
    <path id="s" d="M13.5,12H16V11H13.5a1.5,1.5,0,0,0,0,3h1a.5.5,0,0,1,0,1H12v1h2.5a1.5,1.5,0,0,0,0-3h-1a.5.5,0,0,1,0-1Z"/>
    <path id="c" d="M11,15H9.5a1.5,1.5,0,0,1,0-3H11V11H9.5a2.5,2.5,0,0,0,0,5H11Z"/>
    <path id="doc" d="M21,9V6a3,3,0,0,0-3-3H6A3,3,0,0,0,3,6V21H21V18H19v1H5V8H19V9ZM5,7V6A1,1,0,0,1,6,5H18a1,1,0,0,1,1,1V7Z"/>
  </g>
</svg>
