<svg xmlns="http://www.w3.org/2000/svg" viewBox="0 0 24 24">
  <title>[icons_24_pt1]</title>
  <g id="drafting-compass">
    <path id="shape" d="M17.41,18.09l-1.3-2.86a6.16,6.16,0,0,0,1.82-2l-.86-.51a5.22,5.22,0,0,1-1.39,1.55l-.77-1.7-1.82.83.76,1.68a6.76,6.76,0,0,1-3.11-.21l1.33-2.95A3.49,3.49,0,0,0,12,5.05V3H11V5.05A3.49,3.49,0,0,0,8,8.5a3.46,3.46,0,0,0,.47,1.72l-2.69,6,1.38.62L6,19.3,7,19.7l1.11-2.49,1.36.61.92-2a9,9,0,0,0,2.52.39A6.4,6.4,0,0,0,14.28,16l1.31,2.89.5-.23.45,1,.91-.41-.46-1ZM11.5,7A1.5,1.5,0,1,1,10,8.5,1.5,1.5,0,0,1,11.5,7Z"/>
  </g>
</svg>
