<svg xmlns="http://www.w3.org/2000/svg" viewBox="0 0 32 32">
  <title>[icons_32_pt1]</title>
  <g id="drafting-compass">
    <path id="shape" d="M22.72,24.31a1.5,1.5,0,0,0,.71-1.79l-1.07-3.2a19.85,19.85,0,0,0,2-2l-.75-.66A19.73,19.73,0,0,1,22,18.3l-.59-1.77a1.5,1.5,0,1,0-2.85.95l.88,2.64A6.9,6.9,0,0,1,16,21a6,6,0,0,1-3-1L15.3,15l.2,0A4.49,4.49,0,0,0,16,6.05V4H15V6.05a4.48,4.48,0,0,0-3.21,7L8,21.35a2,2,0,0,0,.49,2.31L7,26.79l.91.42,1.43-3.08A2,2,0,0,0,11.65,23l.93-2A7,7,0,0,0,16,22h.19a8,8,0,0,0,3.6-.93l.8,2.4a1.48,1.48,0,0,0,1.14,1l.81,2.69a.5.5,0,0,0,.48.36l.14,0a.5.5,0,0,0,.33-.62ZM15.5,8A2.5,2.5,0,1,1,13,10.5,2.5,2.5,0,0,1,15.5,8Z"/>
  </g>
</svg>
