<svg xmlns="http://www.w3.org/2000/svg" viewBox="0 0 32 32">
  <title>[icons_32_pt1]</title>
  <g id="drawings">
    <path id="pencil" d="M22.5,9h-.4L9,21.57V28h6.41L28,15.41V15a6.43,6.43,0,0,0-1.79-4.21A5.57,5.57,0,0,0,22.5,9ZM14.59,26H12V25H11V22.43L12.44,21a8,8,0,0,1,3.28,3.82Zm1.89-1.89a10.2,10.2,0,0,0-1.09-1.79L24.71,13,24,12.29l-9.26,9.26a7.65,7.65,0,0,0-1.56-1.22l9.67-9.28a4.12,4.12,0,0,1,1.95,1.15A4.37,4.37,0,0,1,26,14.62Z"/>
    <path id="corner" d="M26,23H23l-2,2h5a2,2,0,0,0,2-2V18l-2,2Z"/>
    <path id="image" d="M26,4H6A2,2,0,0,0,4,6V23a2,2,0,0,0,2,2H8V23H6V11.89a4.94,4.94,0,0,0,2,0A5,5,0,0,0,11.89,8a4.94,4.94,0,0,0,0-2H26V8l2,2V6A2,2,0,0,0,26,4Z"/>
    <polygon id="mountain" points="13 16 18 11 15 8 12 15 10 13 7 20 9 20 13 16"/>
  </g>
</svg>
