<svg xmlns="http://www.w3.org/2000/svg" viewBox="0 0 32 32">
  <title>icons_32_pt2</title>
  <g id="environment">
    <path id="tree" d="M23.21,15.51,18.9,5a3.24,3.24,0,0,0-3-2h0a3.27,3.27,0,0,0-3.07,2l-4,10.49c-.07.17-1.61,4.21.32,7,1.1,1.57,3,2.37,5.75,2.37H15V28h2V24.85c2.85-.05,4.87-.89,6-2.51C24.87,19.58,23.3,15.73,23.21,15.51Zm-1.73,5.8C20.73,22.42,19.21,23,17,23V20.56l2.82-1.94-.69-1.1L17,19V15H15v5.5l-2.12-1.71-.87,1L15,22v1.09h0c-2.15,0-3.64-.51-4.4-1.59-1.38-2-.14-5.25-.12-5.29l4-10.46a1.48,1.48,0,0,1,1.39-.85h0a1.46,1.46,0,0,1,1.37.84l4.3,10.46h0S22.81,19.38,21.48,21.31Z"/>
  </g>
</svg>
