<svg xmlns="http://www.w3.org/2000/svg" viewBox="0 0 32 32">
  <title>icons_32_pt2</title>
  <g id="environment">
    <path id="shape" d="M27.25,18.05,24.43,9.28a3.3,3.3,0,0,0-2.62-2.76,2.58,2.58,0,0,0-2.17.83l-.15-.47C19,4.83,17.6,3.5,16,3.5a3.3,3.3,0,0,0-2.72,1.63,3,3,0,0,0-2.67-1A3.83,3.83,0,0,0,7.68,7.23L4.34,17.6a4.08,4.08,0,0,0,.33,3.92A6.74,6.74,0,0,0,10,24v3h2V24.14a5.51,5.51,0,0,0,2.39.83c.2,0,.4,0,.61,0v3h2V25c.21,0,.41,0,.61,0A5.64,5.64,0,0,0,20,24.19V27h2V23.5h.33a5.83,5.83,0,0,0,4.52-1.87A3.87,3.87,0,0,0,27.25,18.05ZM18.83,16.5,17,18.33V16H15v4.33L13.17,18.5l-.67.67,2.5,2.5V23l-.41,0a3.56,3.56,0,0,1-2.69-1.7,4.11,4.11,0,0,1-.39-3.56l3.65-11A.8.8,0,0,1,16,6.13h0a.81.81,0,0,1,.79.58l3.34,10.64c.46,1.89.33,3.46-.35,4.42A3.08,3.08,0,0,1,17.41,23L17,23V19.67l2.5-2.5ZM10.07,23A5.83,5.83,0,0,1,5.5,21a3.11,3.11,0,0,1-.21-3L8.64,7.5a2.91,2.91,0,0,1,2.12-2.44L11,5a2.2,2.2,0,0,1,1.76,1,6.2,6.2,0,0,0-.25.78L9,17.84v0a5.85,5.85,0,0,0-.21.7l0,.21a4.86,4.86,0,0,0-.08.59s0,.07,0,.11a4.25,4.25,0,0,0,0,.66l0,.11a3.94,3.94,0,0,0,.13.58v0A4,4,0,0,0,9.39,22a4.78,4.78,0,0,0,.95,1h-.27ZM26,21c-.86,1.15-2.74,1.46-3.72,1.46h-.06l.12-.15.1-.11.06-.09.09-.14c.06-.1.12-.19.18-.29l.08-.16c0-.1.1-.21.14-.32l.06-.18c0-.12.07-.23.1-.35s0-.13,0-.2,0-.25,0-.38,0-.14,0-.22,0-.27,0-.41,0-.15,0-.23,0-.31-.06-.47,0-.14,0-.22c0-.24-.1-.48-.18-.74L20,8.5a1.76,1.76,0,0,1,1.69-1c.81.1,1.48.85,1.78,2l2.83,8.79A2.93,2.93,0,0,1,26,21Z"/>
  </g>
</svg>
