<svg xmlns="http://www.w3.org/2000/svg" viewBox="0 0 32 32">
  <title>[icons_32_pt1]</title>
  <g id="expand">
    <path id="outerBox" d="M6,27a1,1,0,0,1-1-1V24S5,6,5,6A1,1,0,0,0,4,7V26a2,2,0,0,0,2,2H25a1,1,0,0,0,1-1H6Z"/>
    <path id="innerBox" d="M26,24H8V6h8V4H8A2,2,0,0,0,6,6V24a2,2,0,0,0,2,2H26a2,2,0,0,0,2-2V16H26Z"/>
    <polygon id="downArrow" points="12 13 10 13 10 22 19 22 19 20 13.5 20 18.84 14.66 17.34 13.16 12 18.5 12 13"/>
    <polygon id="upArrow" points="19 4 19 6 24.5 6 19.16 11.34 20.66 12.84 26 7.5 26 13 28 13 28 4 19 4"/>
  </g>
</svg>
