<svg xmlns="http://www.w3.org/2000/svg" viewBox="0 0 24 24">
  <defs>
    <style>
      .cls-1 {
        fill: #3b579d;
        fill-rule: evenodd;
      }
    </style>
  </defs>
  <title>[icons_24_pt1]</title>
  <g id="facebook">
    <path id="shape" class="cls-1" d="M4.5,7.5v9a3,3,0,0,0,3,3h5V13.69h-2V11.42h2V9.75a2.73,2.73,0,0,1,2.92-3,15.58,15.58,0,0,1,1.74.09v2H16c-.95,0-1.12.44-1.12,1.09v1.45h2.24l-.29,2.27H14.85V19.5H16.5a3,3,0,0,0,3-3v-9a3,3,0,0,0-3-3h-9A3,3,0,0,0,4.5,7.5Z"/>
  </g>
</svg>
