<svg xmlns="http://www.w3.org/2000/svg" viewBox="0 0 24 24">
  <title>[icons_24_pt1]</title>
  <g id="fingerprint">
    <path id="arch4" d="M12,11a1,1,0,0,0-1,1,24.88,24.88,0,0,1-1.52,8.58,1,1,0,0,0,1.89.62,27,27,0,0,0,1.2-4.42l0-.09q.19-1.09.3-2.21c0-.08,0-.16,0-.24.06-.74.1-1.49.1-2.24A1,1,0,0,0,12,11Z"/>
    <path id="arch3R" d="M12,8a4,4,0,0,0-3.51,2.13,1,1,0,0,0,1.79.85A2,2,0,0,1,14,12a27.89,27.89,0,0,1-1.34,8.56,1,1,0,0,0,1.87.64,30.11,30.11,0,0,0,1.36-6.69c0-.1.11-1.77.11-2.51A4,4,0,0,0,12,8Z"/>
    <path id="arch3L" d="M8.91,13a1,1,0,0,0-1,1s-.24,1.76-.42,2.61l0,.19c-.09.4-.59,2.23-.77,2.72a1,1,0,0,0,1.88.68A22.23,22.23,0,0,0,9.23,18h0a24,24,0,0,0,.68-4A1,1,0,0,0,8.91,13Z"/>
    <path id="arch2" d="M12,5a7,7,0,0,0-7,7c0,.27,0,.57,0,.89a18.91,18.91,0,0,1-.78,4.63A1,1,0,0,0,6,18.15,20.69,20.69,0,0,0,7,12a5,5,0,0,1,10,0c0,.19,0,.39,0,.61a30.94,30.94,0,0,1-.78,6.34l0,.16a1,1,0,0,0,1.92.52A32.91,32.91,0,0,0,19,12,7,7,0,0,0,12,5Z"/>
    <path id="arch1R" d="M18.87,4.76a1,1,0,0,0-1.28,1.52A8,8,0,0,1,20,11.17h0A8.09,8.09,0,0,1,20,12a1,1,0,0,0,2,0A10,10,0,0,0,18.87,4.76Z"/>
    <path id="arch1L" d="M12,4l.46,0c.31,0,1.07.13,1.07.13a1,1,0,0,0,.58-1.91A9.73,9.73,0,0,0,12,2,10,10,0,0,0,2,12a1,1,0,0,0,2,.07V12H4A8,8,0,0,1,12,4Z"/>
  </g>
</svg>
