<svg xmlns="http://www.w3.org/2000/svg" viewBox="0 0 32 32">
  <title>icons_32_pt2</title>
  <g id="form">
    <rect id="line6" x="16" y="21" width="4" height="1"/>
    <rect id="line5" x="16" y="19" width="6" height="1"/>
    <rect id="line4" x="16" y="16" width="4" height="1"/>
    <rect id="line3" x="16" y="14" width="6" height="1"/>
    <rect id="line2" x="16" y="11" width="4" height="1"/>
    <rect id="line1" x="16" y="9" width="6" height="1"/>
    <polygon id="check3" points="13.61 19.03 11.49 21.15 10.79 20.45 10.08 21.15 10.79 21.86 11.49 22.57 12.2 21.86 14.32 19.74 13.61 19.03"/>
    <polygon id="check2" points="13.61 14.03 11.49 16.15 10.79 15.45 10.08 16.15 10.79 16.86 11.49 17.57 12.2 16.86 14.32 14.74 13.61 14.03"/>
    <polygon id="check1" points="13.61 9.03 11.49 11.15 10.79 10.45 10.08 11.15 10.79 11.86 11.49 12.57 12.2 11.86 14.32 9.74 13.61 9.03"/>
    <polygon id="paper" points="23 24 9 24 9 8 8 8 8 25 24 25 24 8 23 8 23 24"/>
    <path id="clipboard" d="M26,5H20.76a3.2,3.2,0,0,0-3-2h-.07a2,2,0,0,0-3.45,0H14.2a3.2,3.2,0,0,0-3,2H6A2,2,0,0,0,4,7V26a2,2,0,0,0,2,2H26a2,2,0,0,0,2-2V7A2,2,0,0,0,26,5ZM6,26V7h5V8H21V7h5V26Z"/>
  </g>
</svg>
