<svg xmlns="http://www.w3.org/2000/svg" viewBox="0 0 32 32">
  <title>icons_32_pt1</title>
  <g id="gear">
    <path id="teeth" d="M24.86,17.51a8.42,8.42,0,0,0,0-3l3-1.24-1.53-3.7-3,1.24A9,9,0,0,0,21.2,8.66l1.24-3-3.7-1.53-1.24,3a8.42,8.42,0,0,0-3,0l-1.24-3L9.56,5.68l1.24,3A9,9,0,0,0,8.67,10.8l-3-1.24-1.53,3.7,3,1.24a8.42,8.42,0,0,0,0,3l-3,1.24,1.53,3.7,3-1.24a9,9,0,0,0,2.13,2.13l-1.24,3,3.7,1.53,1.24-3a8.42,8.42,0,0,0,3,0l1.24,3,3.7-1.53-1.24-3a9,9,0,0,0,2.13-2.13l3,1.24,1.53-3.7ZM16,22a6,6,0,1,1,6-6A6,6,0,0,1,16,22Z"/>
    <circle id="hole" cx="16" cy="16" r="2"/>
  </g>
</svg>
