<svg xmlns="http://www.w3.org/2000/svg" viewBox="0 0 24 24">
  <title>[icons_24_pt1]</title>
  <g id="gear">
    <circle id="hole" cx="12" cy="12" r="2"/>
    <path id="teeth" d="M19,12.7a6.07,6.07,0,0,0,0-1.45l2.11-.88L19.53,6.68l-2.11.88a6,6,0,0,0-1-1l.87-2.11-3.7-1.52L12.69,5a6.78,6.78,0,0,0-1.44,0l-.89-2.12L6.68,4.47l.89,2.12a6.79,6.79,0,0,0-1,1L4.43,6.73l-1.52,3.7L5,11.3a6.07,6.07,0,0,0,0,1.45l-2.11.88,1.54,3.69,2.12-.89a6.88,6.88,0,0,0,1,1l-.87,2.12,3.7,1.52L11.3,19a6,6,0,0,0,1.45,0l.88,2.11,3.69-1.54-.88-2.11a6,6,0,0,0,1-1l2.11.87,1.52-3.7ZM12,17a5,5,0,1,1,5-5A5,5,0,0,1,12,17Z"/>
  </g>
</svg>
