<svg xmlns="http://www.w3.org/2000/svg" viewBox="0 0 32 32">
  <title>icons_32_pt2</title>
  <g id="glasses">
    <path id="shape" d="M28,20.47v-12C28,5.72,25.38,5,24,5a1,1,0,0,0,0,2c.2,0,2,.38,2,1.5V18H19a1.51,1.51,0,0,0-.86.3,6,6,0,0,0-4.28,0A1.51,1.51,0,0,0,13,18H6V8.5C6,7.38,7.8,7,8,7A1,1,0,0,0,8,5C6.61,5,4,5.72,4,8.42V20.5H4L5,26a2,2,0,0,0,2,2h5a2,2,0,0,0,2-2l1-5.5a2.84,2.84,0,0,0-.42-1.39,5.34,5.34,0,0,1,2.84,0A2.84,2.84,0,0,0,17,20.5L18,26a2,2,0,0,0,2,2h5a2,2,0,0,0,2-2l1-5.5ZM13,26a1,1,0,0,1-1,1H7a1,1,0,0,1-1-1L5,20.5C5,20,5.45,19,6,19h6.86a1.55,1.55,0,0,0-.36,1h1a.63.63,0,0,1,.21-.45,2.05,2.05,0,0,1,.29.95Zm13,0a1,1,0,0,1-1,1H20a1,1,0,0,1-1-1l-1-5.5a2.05,2.05,0,0,1,.29-.94.63.63,0,0,1,.21.44h1a1.55,1.55,0,0,0-.36-1H26c.55,0,1,1,1,1.5Z"/>
  </g>
</svg>
