<svg xmlns="http://www.w3.org/2000/svg" viewBox="0 0 24 24">
  <title>[icons_24_pt1]</title>
  <g id="glasses">
    <path id="shape" d="M20.11,4.95a2.94,2.94,0,0,0-2.36-.42,1,1,0,1,0,.49,1.94,1,1,0,0,1,.64.06A.69.69,0,0,1,19,7v6H14.68a1.47,1.47,0,0,0-1.41,1H10.72a1.47,1.47,0,0,0-1.41-1H5V7a.69.69,0,0,1,.12-.47,1,1,0,0,1,.64-.06,1,1,0,1,0,.49-1.94,2.94,2.94,0,0,0-2.36.42A2.46,2.46,0,0,0,3,7v7.5c0,.14.08.16.19.12s0,.09,0,.13l.67,4A1.5,1.5,0,0,0,5.35,20h3.3a1.5,1.5,0,0,0,1.48-1.26L10.76,15h2.49l.62,3.75A1.5,1.5,0,0,0,15.35,20h3.3a1.5,1.5,0,0,0,1.48-1.26l.67-4s0-.09,0-.13.19,0,.19-.12V7A2.46,2.46,0,0,0,20.11,4.95Zm-11,13.63a.5.5,0,0,1-.5.42H5.35a.5.5,0,0,1-.5-.42l-.67-4a.5.5,0,0,1,.5-.58H9.32a.5.5,0,0,1,.5.58Zm10,0a.5.5,0,0,1-.5.42h-3.3a.5.5,0,0,1-.5-.42l-.67-4a.5.5,0,0,1,.5-.58h4.63a.5.5,0,0,1,.5.58Z"/>
  </g>
</svg>
