<svg xmlns="http://www.w3.org/2000/svg" viewBox="0 0 32 32">
  <title>[icons_32_pt1]</title>
  <g id="globe">
    <path d="M23.52,18.76A10.84,10.84,0,0,0,19.32,4a1,1,0,0,0-.76-.1,1,1,0,0,0-.61.47L16.83,6.36A7.58,7.58,0,0,0,14.5,6,7.22,7.22,0,0,0,9.2,8.2,7.22,7.22,0,0,0,7,13.5a7.22,7.22,0,0,0,2.2,5.3l.29.27L8.31,21.12a1,1,0,0,0,.37,1.37A11.21,11.21,0,0,0,14.29,24,11,11,0,0,0,16,23.85V26H12a1,1,0,0,0-1,1v1H23V27a1,1,0,0,0-1-1H18V23.34A10.38,10.38,0,0,0,23.52,18.76ZM17,8.06a5.93,5.93,0,0,1,3.52,5.44,5.71,5.71,0,0,1-1.58,4c-.26-.7-.73-.55-1.44-.55H17V15c0-.56-.7-1-1.25-1L11,13.5V12h1a1,1,0,0,0,1-1V10h3a1,1,0,0,0,1-1M8.48,13.5a5.2,5.2,0,0,1,.05-1.34L12,15.75v.74a1.34,1.34,0,0,0,.33,1.06A4.59,4.59,0,0,0,14,18v1.13l-.49.32a5.82,5.82,0,0,1-5-6Zm2.09,7.71.57-1A7.29,7.29,0,0,0,14.5,21a7.22,7.22,0,0,0,5.3-2.2A7.22,7.22,0,0,0,22,13.5a7.22,7.22,0,0,0-2.2-5.3,8,8,0,0,0-1.16-1l.53-.91a8.79,8.79,0,0,1,2.63,11.44A8.79,8.79,0,0,1,10.57,21.21Z"/>
  </g>
</svg>
