<svg xmlns="http://www.w3.org/2000/svg" viewBox="0 0 24 24">
  <defs>
    <style>
      .cls-1 {
        fill-rule: evenodd;
      }
    </style>
  </defs>
  <title>[icons_24_pt1]</title>
  <g id="globe">
    <path id="shape" class="cls-1" d="M14.49,2.85a.77.77,0,0,0-.57-.07.75.75,0,0,0-.46.35l-.84,1.46a5.69,5.69,0,0,0-1.75-.27A5.42,5.42,0,0,0,6.9,6a5.42,5.42,0,0,0-1.65,4,5.42,5.42,0,0,0,1.65,4l.22.2-.89,1.54a.75.75,0,0,0,.27,1,8.4,8.4,0,0,0,4.21,1.13A8.23,8.23,0,0,0,12,17.7v1.1H9a1,1,0,0,0-1,1v1H18v-1a1,1,0,0,0-1-1H14v-1s0,0,0-.7a7.74,7.74,0,0,0,3.64-3.23A8.13,8.13,0,0,0,14.49,2.85ZM8,8.8H9a1,1,0,0,0,1-1h1a2,2,0,0,0,2-1.91h0a4.45,4.45,0,0,1,2.38,4,4.28,4.28,0,0,1-1.19,3c0-.13-.2-.08-.2-.08a1,1,0,0,0-1-1v-1a1,1,0,0,0-1-1H8Zm-1.64,1a3.91,3.91,0,0,1,0-1L9,11.53v.56a1,1,0,0,0,.25.79,3.45,3.45,0,0,0,1.25.34v.85l-.37.24A4.37,4.37,0,0,1,6.36,9.84Zm1.57,5.78.43-.74a5.47,5.47,0,0,0,2.52.59,5.42,5.42,0,0,0,4-1.65,5.42,5.42,0,0,0,1.65-4,5.42,5.42,0,0,0-1.65-4A6,6,0,0,0,14,5.14l.39-.68a6.59,6.59,0,0,1,2,8.58A6.6,6.6,0,0,1,7.93,15.62Z"/>
  </g>
</svg>
