<svg xmlns="http://www.w3.org/2000/svg" viewBox="0 0 24 24">
  <title>[icons_24_pt1]</title>
  <g id="grid-o">
    <path id="square4" d="M20,13H12a1,1,0,0,0-1,1v5a1,1,0,0,0,1,1h8a1,1,0,0,0,1-1V14A1,1,0,0,0,20,13Zm-1,5H13V15h6Z"/>
    <path id="square3" d="M9,13H4a1,1,0,0,0-1,1v5a1,1,0,0,0,1,1H9a1,1,0,0,0,1-1V14A1,1,0,0,0,9,13ZM8,18H5V15H8Z"/>
    <path id="square2" d="M20,4H15a1,1,0,0,0-1,1v6a1,1,0,0,0,1,1h5a1,1,0,0,0,1-1V5A1,1,0,0,0,20,4Zm-1,6H16V6h3Z"/>
    <path id="square1" d="M4,12h8a1,1,0,0,0,1-1V5a1,1,0,0,0-1-1H4A1,1,0,0,0,3,5v6A1,1,0,0,0,4,12ZM5,6h6v4H5Z"/>
  </g>
</svg>
