<svg xmlns="http://www.w3.org/2000/svg" viewBox="0 0 32 32">
  <title>icons_32_pt2</title>
  <g id="health">
    <path id="shape" d="M21.5,4A6.22,6.22,0,0,0,16,6.51C14,4,13,4,10.5,4A6.47,6.47,0,0,0,4,10.46c0,2.12,1.77,4.51,2.73,5.8l6.93,9.55a2.83,2.83,0,0,0,4.66,0L25,16.58c1.27-1.61,3-4,3-6.12A6.45,6.45,0,0,0,21.5,4Zm1.94,11.41-6.75,9.31a.85.85,0,0,1-1.39,0L8.71,15.58,10,12.31l3.11,7.25.94-3.77.57,1.71h1.45a1.5,1.5,0,1,0,0-1h-.73l-1.43-4.29-1.06,4.23L10,9.69,8,14.63c-.81-1.11-2-2.89-2-4.17A4.5,4.5,0,0,1,10.5,6c3.17,0,3.5,1,4,2.67.37.75.54,1.38,1.46,1.38s1.1-.5,1.46-1.29C18,7,18.33,6,21.5,6a4.5,4.5,0,0,1,4.5,4.5C26,11.57,25.15,13.21,23.44,15.37Z"/>
  </g>
</svg>
