<svg xmlns="http://www.w3.org/2000/svg" viewBox="0 0 32 32">
  <title>[icons_32_pt1]</title>
  <g id="help">
    <path id="circle" d="M16,28A12,12,0,1,1,28,16,12,12,0,0,1,16,28ZM16,6A10,10,0,1,0,26,16,10,10,0,0,0,16,6Z"/>
    <path id="question" d="M15,18V16.88c0-.51-.14-.94.07-1.29a2.77,2.77,0,0,1,1-1,3.58,3.58,0,0,0,.85-.72,1.06,1.06,0,0,0,.25-.73.61.61,0,0,0-.31-.52,1.44,1.44,0,0,0-.78-.19,6.1,6.1,0,0,0-2.76.84l-1.09-2.12A8.09,8.09,0,0,1,16.27,10a4.37,4.37,0,0,1,2.73.77,2.49,2.49,0,0,1,1,2.09,3,3,0,0,1-.44,1.64,4.49,4.49,0,0,1-1.41,1.31,4.71,4.71,0,0,0-1,.78.85.85,0,0,0-.16.58V18Zm-.82,2.29a1.45,1.45,0,0,1,.42-1.11,1.74,1.74,0,0,1,1.23-.39,1.68,1.68,0,0,1,1.2.39,1.45,1.45,0,0,1,.42,1.11,1.4,1.4,0,0,1-.43,1.1,1.7,1.7,0,0,1-1.18.39,1.77,1.77,0,0,1-1.21-.39A1.4,1.4,0,0,1,14.18,20.29Z"/>
  </g>
</svg>
