<svg xmlns="http://www.w3.org/2000/svg" viewBox="0 0 32 32">
  <title>[icons_32_pt1]</title>
  <g id="help-desk">
    <path id="body" d="M21.5,15.33C20.22,17,18.23,19,16,19s-4.22-2-5.5-3.67c-3.86,2-4.5,5-4.5,9.67a12.11,12.11,0,0,0,.12,1.72A42.71,42.71,0,0,0,16,28a30.28,30.28,0,0,0,9.89-1.34S26,25.56,26,25C26,20.35,25.36,17.33,21.5,15.33ZM16,26a31.84,31.84,0,0,1-8-1c0-3.83.51-5.71,2.12-7C12.06,20,14,21,16,21s3.94-1,5.88-3.06c1.59,1.3,2.11,3.17,2.11,7A24.28,24.28,0,0,1,16,26Z"/>
    <path id="head" d="M16,17a5,5,0,0,0,4.09-2.8c.41,0,.77.07,1.08.07a1.72,1.72,0,0,0,1.24-.37c.51-.46.59-1.27.59-2.9a6.77,6.77,0,0,0-7-7c-3.63,0-5.6,1.69-5.93,5H9v4h2.36C12.1,15.12,13.9,17,16,17Zm2.2-3.94C17.63,13,17,13,16,13v1c1,0,1.12,0,1.51,0-.53.58-.9,1-1.51,1-1.43,0-3-2.09-3-4a3,3,0,0,1,6,0A4.88,4.88,0,0,1,18.2,13.06ZM11,12H10V10h1Zm5-7a5.81,5.81,0,0,1,6,6,4.59,4.59,0,0,1-.27,2.16c-.15.14-.59.13-1.18.08A6.24,6.24,0,0,0,21,11a5,5,0,0,0-9.58-2h-.36C11.36,6.29,12.95,5,16,5Z"/>
  </g>
</svg>
