<svg xmlns="http://www.w3.org/2000/svg" viewBox="0 0 24 24">
  <title>[icons_24_pt1]</title>
  <g id="help">
    <path id="circle" d="M12,21a9,9,0,1,1,9-9A9,9,0,0,1,12,21ZM12,5a7,7,0,1,0,7,7A7,7,0,0,0,12,5Z"/>
    <path id="question" d="M11,13v-.36a1.82,1.82,0,0,1,.18-.94A2.28,2.28,0,0,1,12,11a2.9,2.9,0,0,0,.65-.52.79.79,0,0,0,.2-.53.43.43,0,0,0-.22-.38A1,1,0,0,0,12,9.38,4.43,4.43,0,0,0,10,10L9.23,8.44a5.88,5.88,0,0,1,3-.81,3.18,3.18,0,0,1,2,.56,1.81,1.81,0,0,1,.72,1.52,2.17,2.17,0,0,1-.32,1.19,3.27,3.27,0,0,1-1,1,1.81,1.81,0,0,0-.57.57c-.1.12,0,.26,0,.42V13Zm-.34,2.12a1.05,1.05,0,0,1,.3-.81,1.27,1.27,0,0,1,.89-.28,1.22,1.22,0,0,1,.87.29,1.05,1.05,0,0,1,.3.8,1,1,0,0,1-.32.8,1.24,1.24,0,0,1-.86.28,1.28,1.28,0,0,1-.88-.28A1,1,0,0,1,10.66,15.12Z"/>
  </g>
</svg>
