<svg xmlns="http://www.w3.org/2000/svg" viewBox="0 0 24 24">
  <title>1</title>
  <g id="hide">
    <path id="iris2" d="M13.75,7.42A4,4,0,0,0,12,7a4,4,0,0,0-4,4,4,4,0,0,0,.42,1.75Z"/>
    <path id="iris1" d="M11.84,15,12,15a4,4,0,0,0,4-4c0-.05,0-.1,0-.16Z"/>
    <rect id="strikethrough" x="0.69" y="11" width="22.63" height="2" transform="translate(-4.97 12) rotate(-45)"/>
    <path id="eyeball2" d="M4.7,16.47l1.41-1.41A7.39,7.39,0,0,1,4.3,12,7.94,7.94,0,0,1,12,6.5a8.4,8.4,0,0,1,2.33.34L15.9,5.27A10.36,10.36,0,0,0,12,4.5,10.2,10.2,0,0,0,4.32,7.93,9.29,9.29,0,0,0,2.23,12a9.29,9.29,0,0,0,2.09,4.07C4.44,16.21,4.57,16.34,4.7,16.47Z"/>
    <path id="eyeball1" d="M19.68,7.93c-.12-.14-.26-.26-.39-.4L17.89,8.94A7.39,7.39,0,0,1,19.7,12,7.94,7.94,0,0,1,12,17.5a8.4,8.4,0,0,1-2.33-.34L8.1,18.73a10.36,10.36,0,0,0,3.9.77,10.2,10.2,0,0,0,7.68-3.43A9.29,9.29,0,0,0,21.77,12,9.29,9.29,0,0,0,19.68,7.93Z"/>
  </g>
</svg>
