<svg xmlns="http://www.w3.org/2000/svg" viewBox="0 0 24 24">
  <title>[icons_24_pt1]</title>
  <g id="laws">
    <polygon id="blcok" points="10 19 4 19 4 20 3 20 3 21 11 21 11 20 10 20 10 19"/>
    <path id="gavel" d="M20.57,18l-4.95-5a1.49,1.49,0,0,0-1.7-.28l-2.19-2.19.71-.71.71.71.71-.71-.71-.71h0L13,9l1.59-.53.08-.24c0-.14.41-1.4-1.18-3S10.65,4,10.51,4l-.24.08L9.75,5.71,8.9,4.87l-.71.71.71.71L6.78,8.4,6.08,7.7l-.71.71.71.71h0l.14.14-1.59.53L4.54,10c0,.14-.41,1.4,1.18,3a3.58,3.58,0,0,0,2.49,1.25,1.63,1.63,0,0,0,.49-.07l.24-.08.53-1.59.84.84.71-.71-.71-.71.71-.71,2.19,2.19a1.49,1.49,0,0,0,.28,1.7l4.95,5A1.5,1.5,0,0,0,20.57,18ZM11,5a2.71,2.71,0,0,1,1.75,1,2.71,2.71,0,0,1,1,1.75l-1.53.51L10.88,6.85l-.35-.35Zm.69,4.14L9.61,11.23,8.36,10l-.87-.87L9.61,7l1.06,1.06ZM8.18,13.25a2.71,2.71,0,0,1-1.75-1,2.71,2.71,0,0,1-1-1.75L7,10l1.68,1.68Z"/>
  </g>
</svg>
