<svg xmlns="http://www.w3.org/2000/svg" viewBox="0 0 32 32">
  <title>[icons_32_pt1]</title>
  <g id="laws">
    <g id="block">
      <polygon points="12 25 5 25 5 26 4 26 4 28 13 28 13 26 12 26 12 25"/>
    </g>
    <path id="gavel" d="M28,24.86,21.1,17.93a1.5,1.5,0,0,0-1.71-.29l-3.95-3.95,1.31-1.31.74.74.71-.71-.74-.74.71-.71h0L21,10.19l-.26-1h0a10.17,10.17,0,0,0-2.26-4.16,10.4,10.4,0,0,0-4.31-2.33h0l-.84-.22-.78,2.9-.68.68-.74-.74-.71.71.74.74L7.84,10.12,7.1,9.38l-.71.71.74.74-.71.71h0l-2.9.78.26,1h0a10.1,10.1,0,0,0,2.31,4.16,10.24,10.24,0,0,0,4.22,2.28h0l.91.24L12,17.12h0l.71-.71.74.74.71-.71-.74-.74,1.31-1.31,3.95,3.95A1.5,1.5,0,0,0,19,20.05L25.91,27A1.5,1.5,0,0,0,28,24.86Zm-9.58-15-1.12.3-4-4,.3-1.12ZM10.9,17.41,6.13,12.65l1.12-.3,3.95,3.95ZM12.72,15,8.55,10.83,11.87,7.5,16,11.68Z"/>
  </g>
</svg>
