<svg xmlns="http://www.w3.org/2000/svg" viewBox="0 0 32 32">
  <title>icons_32_pt2</title>
  <g id="lightbulb-on">
    <polygon id="line2" points="18 14 14 15 14 14 18 13 18 14"/>
    <polygon id="line1" points="18 12 14 13 14 12 18 11 18 12"/>
    <rect id="screw2" x="13" y="27" width="6" height="1"/>
    <rect id="screw1" x="12" y="25" width="8" height="1"/>
    <path id="bulb" d="M16,5a8.1,8.1,0,0,0-5,14.39V24H21V19.39A8.1,8.1,0,0,0,16,5Zm3.42,13.08-.42.3V22H13V18.38l-.42-.3a6.12,6.12,0,0,1-2.58-5,6,6,0,1,1,12,0A6.12,6.12,0,0,1,19.42,18.08Z"/>
    <rect id="lightLine6" x="23.91" y="19.91" width="1" height="3" transform="translate(-7.99 23.54) rotate(-45)"/>
    <rect id="lightLine5" x="26" y="12" width="3" height="1"/>
    <rect id="lightLine4" x="22.91" y="3.91" width="3" height="1" transform="translate(4.03 18.56) rotate(-45)"/>
    <rect id="lightLine3" x="7.09" y="2.91" width="1" height="3" transform="translate(-0.9 6.66) rotate(-45)"/>
    <rect id="lightLine2" x="3" y="12" width="3" height="1"/>
    <rect id="lightLine1" x="6.09" y="21.09" width="3" height="1" transform="translate(-13.04 11.69) rotate(-45)"/>
  </g>
</svg>
