<svg xmlns="http://www.w3.org/2000/svg" viewBox="0 0 24 24">
  <title>[icons_24_pt1]</title>
  <g id="like">
    <path id="shape" d="M19.81,9.25A3.78,3.78,0,0,0,17,8H15V7a4,4,0,0,0-2.42-3.39,1.64,1.64,0,0,0-1.53-.09,1.68,1.68,0,0,0-.92,1.33L9.61,8.6,8.51,10H3v8H8.59l1,1A3.77,3.77,0,0,0,12,20H16.5a3.21,3.21,0,0,0,3.18-2.8l1-5.11A3.67,3.67,0,0,0,19.81,9.25ZM5,16V12H7v4Zm12.7.9A1.26,1.26,0,0,1,16.5,18H12a1.82,1.82,0,0,1-1-.42L9.41,16H8V12H9.49l2-2.6L12,5.6A1.88,1.88,0,0,1,13,7L13,10h4a1.78,1.78,0,0,1,1.33.58,1.67,1.67,0,0,1,.41,1.21Z"/>
  </g>
</svg>
