<svg xmlns="http://www.w3.org/2000/svg" viewBox="0 0 32 32">
  <title>[icons_32_pt1]</title>
  <g id="like">
    <path id="shape" d="M27.37,12.52A4.27,4.27,0,0,0,24,11H20V8a4,4,0,0,0-4-4,2.19,2.19,0,0,0-2.13,1.85l-.79,5.57L10.7,13H4V25H9.67l2.93,2.2A4.46,4.46,0,0,0,15,28h8a3.55,3.55,0,0,0,3.38-2.76l1.82-9.12A4.25,4.25,0,0,0,27.37,12.52ZM6,23V15H9v8Zm20.24-7.27-1.82,9.12A1.55,1.55,0,0,1,23,26H15a2.55,2.55,0,0,1-1.2-.4L10.33,23H10V15h1.3l3.62-2.42.92-6.45A.21.21,0,0,1,16,6a2,2,0,0,1,2,2v5h6a2.16,2.16,0,0,1,2.25,2.73Z"/>
  </g>
</svg>
