<svg xmlns="http://www.w3.org/2000/svg" viewBox="0 0 24 24">
  <defs>
    <style>
      .cls-1 {
        fill: #0077b5;
        fill-rule: evenodd;
      }
    </style>
  </defs>
  <title>[icons_24_pt1]</title>
  <g id="linkedin">
    <path id="shape" class="cls-1" d="M20,6V18a2,2,0,0,1-2,2H6a2,2,0,0,1-2-2V6A2,2,0,0,1,6,4H18A2,2,0,0,1,20,6Zm-7.4,4.17H10.2s0,.68,0,7.23H12.6v-4a1.69,1.69,0,0,1,.07-.58,1.33,1.33,0,0,1,1.24-.87c.86,0,1.21.66,1.21,1.64V17.4h2.41V13.25C17.53,11,16.34,10,14.76,10a2.37,2.37,0,0,0-2.16,1.19Zm0,1.05h0l0,0ZM9,7.94A1.25,1.25,0,0,0,7.69,6.69a1.25,1.25,0,1,0,0,2.5h0A1.26,1.26,0,0,0,9,7.94ZM6.47,17.4H8.88V10.17H6.47Z"/>
  </g>
</svg>
