<svg xmlns="http://www.w3.org/2000/svg" viewBox="0 0 32 32">
  <defs>
    <style>
      .cls-1 {
        fill: #0077b5;
        fill-rule: evenodd;
      }
    </style>
  </defs>
  <title>icons_32_pt2</title>
  <g id="linkedin">
    <path id="shape" class="cls-1" d="M27,7V25a2,2,0,0,1-2,2H7a2,2,0,0,1-2-2V7A2,2,0,0,1,7,5H25A2,2,0,0,1,27,7ZM16.83,13.48H13.52s0,.93,0,9.94h3.31V17.86a2.32,2.32,0,0,1,.1-.8,1.83,1.83,0,0,1,1.7-1.2c1.19,0,1.66.9,1.66,2.25v5.31h3.31v-5.7c0-3.05-1.63-4.47-3.81-4.47a3.25,3.25,0,0,0-3,1.63Zm0,1.45h0l0,0Zm-4.91-4.51A1.71,1.71,0,0,0,10.07,8.7a1.72,1.72,0,1,0,0,3.44h0A1.73,1.73,0,0,0,11.92,10.41Zm-3.52,13H11.7V13.48H8.39Z"/>
  </g>
</svg>
