<svg xmlns="http://www.w3.org/2000/svg" viewBox="0 0 24 24">
  <title>[icons_24_pt1]</title>
  <g id="list-num">
    <rect id="line1" x="9" y="6" width="11" height="2"/>
    <rect id="line2" x="9" y="11" width="11" height="2"/>
    <rect id="line3" x="9" y="16" width="11" height="2"/>
    <polygon id="num3" points="6 16 7 15 4 15 4 16 5 16 5 17 6 17 6 18 4 18 4 19 6 19 7 18 7 17 6 16 6 16"/>
    <polygon id="num2" points="7 11 6 10 5 10 4 11 4 12 5 12 5 11 6 11 6 12 4 14 7 14 7 13 6 13 7 12 7 11"/>
    <polygon id="num1" points="5 5 4 6 5 6 5 9 6 9 6 5 5 5"/>
  </g>
</svg>
