<svg xmlns="http://www.w3.org/2000/svg" viewBox="0 0 24 24">
  <title>[icons_24_pt1]</title>
  <g id="map-pin">
    <path id="groud" d="M15.23,17.23l-.81.94A12.87,12.87,0,0,1,18.9,19c-.59.36-2.93.91-6.9.91S5.69,19.36,5.1,19a12.87,12.87,0,0,1,4.48-.83l-.81-.94C6.52,17.42,4,17.88,4,19c0,1.81,6.66,1.91,8,1.91s8-.09,8-1.91C20,17.88,17.48,17.42,15.23,17.23Z"/>
    <path id="pin-2" data-name="pin" d="M12,18.45l-.72-.76C10.74,17.12,6,12.07,6,9A6,6,0,0,1,18,9c0,3.07-4.74,8.12-5.28,8.69ZM12,5A4,4,0,0,0,8,9c0,1.51,2.22,4.51,4,6.52,1.78-2,4-5,4-6.52A4,4,0,0,0,12,5Z"/>
    <path id="circle" d="M12,11.25A2.25,2.25,0,1,1,14.25,9,2.25,2.25,0,0,1,12,11.25Zm0-3.5A1.25,1.25,0,1,0,13.25,9,1.25,1.25,0,0,0,12,7.75Z"/>
  </g>
</svg>
