<svg xmlns="http://www.w3.org/2000/svg" viewBox="0 0 32 32">
  <title>icons_32_pt2</title>
  <g id="map-pin">
    <path id="pin" d="M16,24.51l-.75-.85C14.51,22.82,8,15.36,8,11.5A7.77,7.77,0,0,1,16,4a7.77,7.77,0,0,1,8,7.5c0,3.86-6.51,11.32-7.25,12.16ZM16,6a5.77,5.77,0,0,0-6,5.5c0,2.12,3.42,6.9,6,10,2.58-3.07,6-7.84,6-10A5.77,5.77,0,0,0,16,6Z"/>
    <path id="circle" d="M16,15.5A3.5,3.5,0,1,1,19.5,12,3.5,3.5,0,0,1,16,15.5Zm0-6A2.5,2.5,0,1,0,18.5,12,2.5,2.5,0,0,0,16,9.5Z"/>
    <path id="groundCircle" d="M21.9,21l-1,1.36c3.53.5,5.35,1.45,5.35,1.93,0,.67-3.49,2.25-10.25,2.25S5.75,24.92,5.75,24.25c0-.48,1.82-1.43,5.35-1.93L10.1,21c-3.32.56-5.85,1.63-5.85,3.29C4.25,26.83,10.34,28,16,28s11.75-1.17,11.75-3.75C27.75,22.59,25.21,21.51,21.9,21Z"/>
  </g>
</svg>
