<svg xmlns="http://www.w3.org/2000/svg" viewBox="0 0 32 32">
  <title>icons_32_pt2</title>
  <g id="microscope">
    <rect id="lens" x="18.5" y="5" width="6" height="1" transform="translate(10.19 -13.59) rotate(45)"/>
    <path id="microscope-2" data-name="microscope" d="M23.45,26a11,11,0,0,0,2.05-6.5,10.24,10.24,0,0,0-4.8-9l1.87-1.87L18.33,4.43l-9.9,9.9,1.75,1.75L9,17.39l.73.68,1.2-1.29,1.79,1.79,5.81-5.81c2.32.82,4,3.53,4,6.74A7.19,7.19,0,0,1,19,26H10V21h3V20H6v1H9v5H6v2H26V26ZM11.26,14.33l7.07-7.07,1.42,1.42-7.07,7.07Z"/>
  </g>
</svg>
