<svg xmlns="http://www.w3.org/2000/svg" viewBox="0 0 32 32">
  <defs>
    <style>
      .cls-1 {
        fill-rule: evenodd;
      }
    </style>
  </defs>
  <title>[icons_32_pt1]</title>
  <g id="mobile">
    <path id="phone" class="cls-1" d="M17.33,4H6.67A2.67,2.67,0,0,0,4,6.67V25.33A2.67,2.67,0,0,0,6.67,28H17.33A2.67,2.67,0,0,0,20,25.33V20l-1.33-1.33L20,17.33V14.67l-1.33-1.33L20,12V6.67A2.67,2.67,0,0,0,17.33,4ZM18,26H6V23h5v2h2V23h5ZM6,22H18V10H6ZM18,9H15V8H13V9H12V8H9V9H6V6H18Z"/>
    <path id="signalOuter" class="cls-1" d="M25.33,24.6,22.94,23.4l1-1.94a12.27,12.27,0,0,0,0-10.92l-1-1.94L25.33,7.4l1,1.94a15,15,0,0,1,0,13.31Z"/>
    <path id="signalInner" class="cls-1" d="M22.44,20.74l-2.22-1.48.23-.35a5.23,5.23,0,0,0,0-5.82l-.23-.35,2.22-1.48.23.35a7.89,7.89,0,0,1,0,8.78Z"/>
  </g>
</svg>
