<svg xmlns="http://www.w3.org/2000/svg" viewBox="0 0 24 24">
  <title>[icons_24_pt1]</title>
  <g id="mobile">
    <path id="signal2" d="M19,18.45l-1.79-.89.73-1.46a9.21,9.21,0,0,0,0-8.19l-.73-1.46L19,5.55,19.72,7a11.22,11.22,0,0,1,0,10Z"/>
    <path id="signal1" d="M16.83,15.55l-1.67-1.11.17-.26a3.92,3.92,0,0,0,0-4.37l-.18-.26,1.67-1.11.17.26a5.92,5.92,0,0,1,0,6.58Z"/>
    <path id="phone" d="M13,3H5A2,2,0,0,0,3,5V19a2,2,0,0,0,2,2h8a2,2,0,0,0,2-2V15l-1-1,1-1V11l-1-1,1-1V5A2,2,0,0,0,13,3Zm0,16H5V17H8v1h2V17h3Zm0-3H5V8h8Zm0-9H11V6H10V7H9V6H7V7H5V5h8Z"/>
  </g>
</svg>
