<svg xmlns="http://www.w3.org/2000/svg" viewBox="0 0 32 32">
  <title>[icons_32_pt1]</title>
  <g id="bankFinance">
    <path id="dollar" d="M14.48,13h3a.5.5,0,0,1,0,1H14v1h1v1h2V15h.49a1.5,1.5,0,0,0,0-3h-3a.5.5,0,0,1,0-1H18V10H17V9H15v1h-.52a1.5,1.5,0,0,0,0,3Z"/>
    <path id="outline" d="M9,18H23a3.26,3.26,0,0,1,2-2.83V9.83A3.26,3.26,0,0,1,23,7H9A3.24,3.24,0,0,1,7,9.83v5.34A3.24,3.24,0,0,1,9,18ZM8,10.46A3.72,3.72,0,0,0,9.85,8H22.12A3.76,3.76,0,0,0,24,10.46v4.09A3.76,3.76,0,0,0,22.12,17H9.85A3.72,3.72,0,0,0,8,14.54Z"/>
    <path id="stack" d="M26,4H6A2,2,0,0,0,4,6V27a1,1,0,0,0,1,1H27a1,1,0,0,0,1-1V6A2,2,0,0,0,26,4ZM6,6H26V19H6ZM27,27H5V26H27Zm0-2H5V24H27Zm0-2H5V22H27Zm0-2H5V20H27Z"/>
  </g>
</svg>
