<svg xmlns="http://www.w3.org/2000/svg" viewBox="0 0 32 32">
  <title>[icons_32_pt1]</title>
  <g id="more">
    <path id="circle3" d="M24.5,20A3.5,3.5,0,1,1,28,16.5,3.5,3.5,0,0,1,24.5,20Zm0-5A1.5,1.5,0,1,0,26,16.5,1.5,1.5,0,0,0,24.5,15Z"/>
    <path id="circle2" d="M16,20a3.5,3.5,0,1,1,3.5-3.5A3.5,3.5,0,0,1,16,20Zm0-5a1.5,1.5,0,1,0,1.5,1.5A1.5,1.5,0,0,0,16,15Z"/>
    <path id="circle1" d="M7.5,20A3.5,3.5,0,1,1,11,16.5,3.5,3.5,0,0,1,7.5,20Zm0-5A1.5,1.5,0,1,0,9,16.5,1.5,1.5,0,0,0,7.5,15Z"/>
  </g>
</svg>
