<svg xmlns="http://www.w3.org/2000/svg" viewBox="0 0 64 64">
  <title>icons_64</title>
  <g id="Mouse">
    <path d="M33,11A16,16,0,0,0,17,27V44A12,12,0,0,0,29,56h7.92A12.06,12.06,0,0,0,49,44V27A16,16,0,0,0,33,11ZM20,27A13,13,0,0,1,32,14v2.23A2,2,0,0,0,31,18v4a2,2,0,0,0,1,1.72V28H20ZM46,44a9.06,9.06,0,0,1-9.06,9H29a9,9,0,0,1-9-9V30H46Zm0-16H34V23.72A2,2,0,0,0,35,22V18a2,2,0,0,0-1-1.72V14.05A13,13,0,0,1,46,27Z"/>
    <rect x="12" y="16" width="6" height="1"/>
    <rect x="16" y="7.96" width="1" height="7.07" transform="translate(-3.3 15.04) rotate(-45)"/>
    <rect x="21" y="8" width="1" height="5"/>
  </g>
</svg>
