<svg xmlns="http://www.w3.org/2000/svg" viewBox="0 0 64 64">
  <title>icons_64</title>
  <g id="Mouse">
    <path d="M32,11A16,16,0,0,0,16,27V44A12,12,0,0,0,28,56h7.92A12.06,12.06,0,0,0,48,44V27A16,16,0,0,0,32,11ZM19,27A13,13,0,0,1,31,14v2.23A2,2,0,0,0,30,18v4a2,2,0,0,0,1,1.72V28H19ZM45,44a9.06,9.06,0,0,1-9.06,9H28a9,9,0,0,1-9-9V30H45Zm0-16H33V23.72A2,2,0,0,0,34,22V18a2,2,0,0,0-1-1.72V14.05A13,13,0,0,1,45,27Z"/>
    <rect x="11" y="16" width="6" height="1"/>
    <rect x="15" y="7.96" width="1" height="7.07" transform="translate(-3.59 14.33) rotate(-45)"/>
    <rect x="20" y="8" width="1" height="5"/>
  </g>
</svg>
