<svg xmlns="http://www.w3.org/2000/svg" viewBox="0 0 64 64">
  <title>icons_64</title>
  <g id="MouseRight">
    <path d="M32,11 C23.163444,11 16,18.163444 16,27 L16,44 C16,50.627417 21.372583,56 28,56 L35.92,56 C42.5649939,56.0111021 47.9669496,50.644921 48,44 L48,27 C48,18.163444 40.836556,11 32,11 Z M19,27 C18.9798343,20.1933583 24.2134941,14.5235602 31,14 L31,16.23 C30.3693019,16.5939608 29.9862579,17.2719487 30,18 L30,22 C30.0042869,22.7102221 30.3849109,23.3648954 31,23.72 L31,28 L18.9999419,28 L19,27 Z M45,44 C44.9670175,48.9802525 40.9203617,53.0001092 35.94,53 L28,53 C23.0294373,53 19,48.9705627 19,44 L19,30 L45,30 L45,44 Z M45,28 L33,28 L33,23.72 C33.6150891,23.3648954 33.9957131,22.7102221 34,22 L34,18 C33.9957131,17.2897779 33.6150891,16.6351046 33,16.28 L33,14.05 C39.7673128,14.5721069 44.9940052,20.2125792 45,27 L45,28 Z"/>
    <rect x="47" y="16" width="6" height="1"/>
    <rect transform="translate(48.504546, 11.500931) rotate(45.000000) translate(-48.504546, -11.500931) " x="48.0045457" y="7.96593056" width="1" height="7.07"/>
    <rect x="43" y="8" width="1" height="5"/>
  </g>
</svg>