<svg xmlns="http://www.w3.org/2000/svg" viewBox="0 0 32 32">
  <title>icons_32_pt2</title>
  <g id="network">
    <path id="shape" d="M20.95,17h3.62a2,2,0,1,0,0-1H20.95A4.48,4.48,0,0,0,17,12.05V7.43a2,2,0,1,0-1,0v4.62a4.45,4.45,0,0,0-2.29.95L9.44,8.73a3,3,0,1,0-.71.71L13,13.71a4.38,4.38,0,0,0-.4,5L7.88,23.42a2.51,2.51,0,1,0,.71.71l4.6-4.6a4.43,4.43,0,0,0,6.11.48l3.12,3.12a2.51,2.51,0,1,0,.71-.71L20,19.29A4.45,4.45,0,0,0,20.95,17Zm5.55-1.5a1,1,0,1,1-1,1A1,1,0,0,1,26.5,15.5ZM6.5,27A1.5,1.5,0,1,1,8,25.5,1.5,1.5,0,0,1,6.5,27Zm9-21.5a1,1,0,1,1,1,1A1,1,0,0,1,15.5,5.5ZM7,9A2,2,0,1,1,9,7,2,2,0,0,1,7,9Zm9.5,10A2.5,2.5,0,1,1,19,16.5,2.5,2.5,0,0,1,16.5,19Zm8,4A1.5,1.5,0,1,1,23,24.5,1.5,1.5,0,0,1,24.5,23Z"/>
  </g>
</svg>
