<svg xmlns="http://www.w3.org/2000/svg" viewBox="0 0 32 32">
  <title>[icons_32_pt1]</title>
  <g id="news-v2">
    <polygon id="lineR3" points="24.14 17.94 24 19.06 18.54 21.94 18.6 20.83 24.14 17.94"/>
    <polygon id="lineR2" points="24.14 15.94 24 17.06 18.54 19.94 18.6 18.83 24.14 15.94"/>
    <polygon id="lineR1" points="24.14 13.94 24 15.06 18.54 17.94 18.6 16.83 24.14 13.94"/>
    <path id="imageR2" d="M23.55,8.27l-1.62.84a.51.51,0,0,0-.27.46l0,2a.51.51,0,0,0,.74.44l1.43-.74a.51.51,0,0,0,.27-.41l.16-2.09A.51.51,0,0,0,23.55,8.27Z"/>
    <path id="imageR1" d="M20.45,11.48l-1.62.84a.51.51,0,0,0-.27.46l0,2a.51.51,0,0,0,.74.44l1.43-.74a.51.51,0,0,0,.27-.41L21.18,12A.51.51,0,0,0,20.45,11.48Z"/>
    <polygon id="lineL3" points="7.86 17.94 8 19.06 13.46 21.94 13.4 20.83 7.86 17.94"/>
    <polygon id="lineL2" points="7.86 15.94 8 17.06 13.46 19.94 13.4 18.83 7.86 15.94"/>
    <polygon id="lineL1" points="7.86 13.94 8 15.06 13.46 17.94 13.4 16.83 7.86 13.94"/>
    <path id="imageL" d="M8.7,8.34l2.45,1.27a.76.76,0,0,1,.41.69l-.05,3a.76.76,0,0,1-1.11.66L8.23,12.85a.76.76,0,0,1-.41-.62L7.59,9.08A.76.76,0,0,1,8.7,8.34Z"/>
    <path id="paper" d="M16,9S9.5,4,4,4L6,23c3.88,0,10,5,10,5s5.88-5,10-5L28,4C22,4,16,9,16,9ZM6.25,6.29a27.35,27.35,0,0,1,8.53,4.3L15,11V25c-1.88-1.3-4.63-3.17-7.18-3.77ZM24.18,21.21C21.57,21.79,18.86,23.7,17,25V11l.28-.46a22.78,22.78,0,0,1,8.47-4.28Z"/>
  </g>
</svg>
