<svg xmlns="http://www.w3.org/2000/svg" viewBox="0 0 24 24">
  <title>[icons_24_pt1]</title>
  <g id="news">
    <rect id="line4" x="9" y="17" width="6" height="1"/>
    <rect id="line3" x="9" y="15" width="9" height="1"/>
    <rect id="line2" x="9" y="13" width="9" height="1"/>
    <rect id="line1" x="9" y="11" width="9" height="1"/>
    <polygon id="heading" points="17 8 17 9 10 9 10 7 16 7 16 6 9 6 9 10 18 10 18 8 17 8"/>
    <path id="paper" d="M17.79,3H6V7H3V18a3,3,0,0,0,3,3H19a2,2,0,0,0,2-2V6ZM5,19V9H6V19Zm3,0V5h9V7h2V19Z"/>
  </g>
</svg>
