<svg xmlns="http://www.w3.org/2000/svg" viewBox="0 0 32 32">
  <title>[icons_32_pt1]</title>
  <g id="news">
    <rect id="line12" x="20" y="23" width="3" height="1"/>
    <rect id="line11" x="20" y="21" width="4" height="1"/>
    <rect id="line10" x="20" y="19" width="4" height="1"/>
    <rect id="line9" x="20" y="17" width="4" height="1"/>
    <rect id="line8" x="12" y="23" width="4" height="1"/>
    <rect id="line7" x="12" y="21" width="6" height="1"/>
    <rect id="line6" x="12" y="19" width="6" height="1"/>
    <rect id="line5" x="12" y="17" width="6" height="1"/>
    <rect id="line4" x="20" y="14" width="3" height="1"/>
    <rect id="line3" x="20" y="12" width="4" height="1"/>
    <rect id="line2" x="20" y="10" width="4" height="1"/>
    <rect id="line1" x="20" y="8" width="4" height="1"/>
    <rect id="image" x="12" y="8" width="6" height="7"/>
    <path id="paper" d="M8,4V8H4V25a3,3,0,0,0,3,3H23a5,5,0,0,0,5-5V4ZM6,25V10H8V25a1,1,0,0,1-2,0Zm20-2a3,3,0,0,1-3,3H9.82A3,3,0,0,0,10,25V6H26Z"/>
  </g>
</svg>
