<svg xmlns="http://www.w3.org/2000/svg" viewBox="0 0 32 32">
  <title>[icons_32_pt1]</title>
  <g id="notepad">
    <path id="pad" d="M22,26H6V12h6l1-1H6V9A1,1,0,0,1,7,8h9l2-2H7A3,3,0,0,0,4,9V28H24V17l-2,2Z"/>
    <path id="pencil" d="M26.21,5.79A5.57,5.57,0,0,0,22.5,4h-.4L9,16.57V23h6.41L28,10.41V10A6.43,6.43,0,0,0,26.21,5.79ZM14.59,21H12V20H11V17.43L12.44,16a8,8,0,0,1,3.28,3.82Zm1.89-1.89a10.2,10.2,0,0,0-1.09-1.79L24.71,8,24,7.29l-9.26,9.26a7.65,7.65,0,0,0-1.56-1.22l9.67-9.28a4.12,4.12,0,0,1,1.95,1.15A4.37,4.37,0,0,1,26,9.62Z"/>
  </g>
</svg>
