<svg xmlns="http://www.w3.org/2000/svg" viewBox="0 0 32 32">
  <title>icons_32_pt2</title>
  <g id="notes">
    <rect id="line5" x="15" y="20" width="5" height="1"/>
    <rect id="line4" x="15" y="17" width="7" height="1"/>
    <rect id="line3" x="15" y="14" width="7" height="1"/>
    <rect id="line2" x="15" y="11" width="7" height="1"/>
    <rect id="line1" x="15" y="8" width="7" height="1"/>
    <path id="notepad" d="M23,4H10A3,3,0,0,0,7,7V8H6.5a.5.5,0,0,0,0,1H7v2H6.5a.5.5,0,0,0,0,1H7v2H6.5a.5.5,0,0,0,0,1H7v2H6.5a.5.5,0,0,0,0,1H7v2H6.5a.5.5,0,0,0,0,1H7v2H6.5a.5.5,0,0,0,0,1H7v1a3,3,0,0,0,3,3H23a3,3,0,0,0,3-3V7A3,3,0,0,0,23,4ZM9,25V24h.5a.5.5,0,0,0,0-1H9V21h.5a.5.5,0,0,0,0-1H9V18h.5a.5.5,0,0,0,0-1H9V15h.5a.5.5,0,0,0,0-1H9V12h.5a.5.5,0,0,0,0-1H9V9h.5a.5.5,0,0,0,0-1H9V7a1,1,0,0,1,1-1h2V26H10A1,1,0,0,1,9,25Zm15,0a1,1,0,0,1-1,1H13V6H23a1,1,0,0,1,1,1Z"/>
  </g>
</svg>
