<svg xmlns="http://www.w3.org/2000/svg" viewBox="0 0 32 32">
  <title>[icons_32_pt1]</title>
  <g id="papers-chart">
    <path id="chart" d="M18.5,19a1.49,1.49,0,0,0-1.27,2.29l-1.3,1.78a1.45,1.45,0,0,0-1.5.39L13,22.63s0-.08,0-.13a1.5,1.5,0,1,0-2.85.64l-2,2,.71.71,2-2a1.48,1.48,0,0,0,1.72-.31l1.44.83s0,.08,0,.13a1.5,1.5,0,1,0,2.74-.85L18,21.91A1.5,1.5,0,1,0,18.5,19Z"/>
    <rect id="line2" x="8" y="17" width="12" height="1"/>
    <rect id="line1" x="8" y="15" width="12" height="1"/>
    <polygon id="headline" points="19 14 19 13 9 13 9 11 17 11 17 10 8 10 8 14 19 14"/>
    <path id="docs" d="M27,7.59,22.41,3H9V7H5V29H23V25h4ZM21,27H7V9H18v3h3Zm4-4H23V11.59L18.41,7H11V5H22V8h3Z"/>
  </g>
</svg>
