<svg xmlns="http://www.w3.org/2000/svg" viewBox="0 0 32 32">
  <title>icons_32_pt2</title>
  <g id="papers-tools">
    <path id="tools" d="M27.82,20h-.4l-1.7,1.7-1.41-1.41,1.7-1.7v-.4a3,3,0,0,0-3.69,4.1l-.81.81-1.62-1.62a3.4,3.4,0,0,0,.7-2.05L22,18H19.53a4.27,4.27,0,0,0-3,1.25l-.87.87v1.41H14.23l-.71.71,2.83,2.83.71-.71V22.95h1.41l1.6,1.57-1.76,1.76a1,1,0,1,0,1.41,1.41l1.77-1.77,1.81,1.78a1,1,0,0,0,1.41-1.41L22.92,24.5l.81-.81A3,3,0,0,0,27.82,20Z"/>
    <rect id="line5" x="8" y="24" width="5" height="1"/>
    <rect id="line4" x="8" y="22" width="4" height="1"/>
    <rect id="line3" x="8" y="20" width="5" height="1"/>
    <rect id="line2" x="8" y="18" width="7" height="1"/>
    <rect id="line1" x="8" y="16" width="10" height="1"/>
    <polygon id="heading" points="19 14 19 13 9 13 9 11 17 11 17 10 8 10 8 14 19 14"/>
    <polygon id="docs" points="7 27 7 9 18 9 18 12 21 12 21 17 23 17 23 11.59 18.41 7 11 7 11 5 22 5 22 8 25 8 25 17 27 17 27 7.59 22.41 3 9 3 9 7 5 7 5 29 16 29 16 27 7 27"/>
  </g>
</svg>
