<svg xmlns="http://www.w3.org/2000/svg" viewBox="0 0 32 32">
  <title>icons_32_pt2</title>
  <g id="quill-money">
    <path id="_" data-name="$" d="M12.94,22.94a5.57,5.57,0,0,1-.53-.2,1,1,0,0,1-.27-.16.23.23,0,0,1-.08-.18.21.21,0,0,1,.11-.19.79.79,0,0,1,.37-.06,3.07,3.07,0,0,1,1.24.31l.39-.94a3.86,3.86,0,0,0-1.32-.32v-.44h-.68v.45a1.85,1.85,0,0,0-1,.38,1.07,1.07,0,0,0-.35.85,1.35,1.35,0,0,0,.12.59,1.2,1.2,0,0,0,.37.43,2.63,2.63,0,0,0,.67.35l.59.23a1.49,1.49,0,0,1,.31.17.24.24,0,0,1,0,.41.91.91,0,0,1-.41.07,2.87,2.87,0,0,1-.79-.13,4.74,4.74,0,0,1-.83-.32v1.09a3.91,3.91,0,0,0,1.39.32v.61h.68v-.63a1.7,1.7,0,0,0,1-.43,1.2,1.2,0,0,0,.35-.9,1.11,1.11,0,0,0-.3-.8A2.57,2.57,0,0,0,12.94,22.94Z"/>
    <path id="dollar" d="M20,20a1,1,0,0,0-1-1H6a1,1,0,0,0-1,1v7a1,1,0,0,0,1,1H19a1,1,0,0,0,1-1ZM6,20H7.29L6,21.29Zm0,7V25.71L7.29,27Zm13,0H17.71L19,25.71Zm0-2.71L16.29,27H8.71L6,24.29V22.71L8.71,20h7.59L19,22.71Zm0-3L17.71,20H19Z"/>
    <path id="quill" d="M27.71,27l-5.09-5.09a11.15,11.15,0,0,0,1.69-2.19,4.27,4.27,0,0,0-.6-5.43L18.23,8.82c-.24-.24-.62-.62-2.39-.14-.19-1.19-.53-2.79-1.06-3.14A9.38,9.38,0,0,0,10,4H4v6A9.09,9.09,0,0,0,6.29,15.7s1.05,1.07,2,2a.91.91,0,0,0,.55.29h5.22a2.91,2.91,0,0,0-.12-1.32L13.72,16H13l-.79,0c-.62,0-2.12.06-2.74,0-.88-.86-1.75-1.76-1.76-1.77A3.82,3.82,0,0,1,7.45,14h5.84l4,4h1.41L18,17.29V11.41l1,1V18h1V13.41l2.29,2.29a2.29,2.29,0,0,1,.32,2.94l-.06.1A9.21,9.21,0,0,1,21.2,20.5l-.2-.2v3.15c.26-.22.55-.48.91-.82L26.29,27H21v1h7V27ZM17,16.29,8.85,8.15l-.71.71L12.29,13H6.81A7.1,7.1,0,0,1,6,10V6h4a7.09,7.09,0,0,1,3.41,1A14.94,14.94,0,0,1,14,10v1.42l1.34-.48A11.2,11.2,0,0,1,17,10.47Z"/>
  </g>
</svg>
