<svg xmlns="http://www.w3.org/2000/svg" viewBox="0 0 32 32">
  <title>[icons_32_pt1]</title>
  <g id="quill">
    <path id="ink" d="M10,14H4v1.71L5,17H4v4h6V17H9l1-1.29ZM5,15H9v.29L8.29,16H5.71L5,15.29Zm0,4V18H9v1Z"/>
    <path id="pen" d="M12.23,27l2.06-2.94a4.8,4.8,0,0,0,2.58.75,5.74,5.74,0,0,0,3.7-1.43l.81-.69-.74-.77a6.4,6.4,0,0,1-.42-.48c.57-.08,1.21-.21,1.94-.39l.4-.1.21-.35A42.26,42.26,0,0,0,27.5,7.31a1.87,1.87,0,0,0-.64-2.1,1.83,1.83,0,0,0-2.13.2,49.42,49.42,0,0,0-5.91,4.46l-.19.16-.09.23A12.25,12.25,0,0,0,18,12.09h0l-.71-.81-.75.77a30,30,0,0,0-3.16,3.76c-2.18,3.12-1.51,6.06.14,7.65L11,27h0l-.07.09a.49.49,0,0,0,.07.64V28H28V27Zm3.21-4.58,1.8-2.57.36,1a6.37,6.37,0,0,0,.84,1.57A3.06,3.06,0,0,1,15.44,22.42Zm5.82-3.21a7.87,7.87,0,0,1-2.58.32l-1.1-.16L21.35,14a.49.49,0,0,0,.15,0h2.13A31.72,31.72,0,0,1,21.26,19.2Zm-.93-8a50,50,0,0,1,5.14-3.9A46.09,46.09,0,0,1,24,13H22l1.86-2.65a.5.5,0,0,0-.82-.57L20,14.2l-.1-.54A5.65,5.65,0,0,1,20.33,11.21Zm-3,2.93a4.85,4.85,0,0,0,1.27.66l.8.27-3.17,4.52-1.06-2.83A26.86,26.86,0,0,1,17.29,14.13Zm-2.82,3.7,1,2.75-.83,1.18A3.52,3.52,0,0,1,14.47,17.84Z"/>
  </g>
</svg>
