<svg xmlns="http://www.w3.org/2000/svg" viewBox="0 0 24 24">
  <title>[icons_24_pt1]</title>
  <g id="statutes">
    <path id="shape" d="M4,20v1H20V20H4.71l3.41-3.41a9.74,9.74,0,0,0,1.22,1,5.69,5.69,0,0,0,4.29-.33c.46-.34,1.2-1.19,2.07-2.07h0c.49-.48.35-1,0-1.66,1.49.09,1.75.09,2.1-.26l1.41-1.41a6.35,6.35,0,0,0,1.66-4.14l-.09-4.5-4.5-.09a6.47,6.47,0,0,0-4.15,1.67S7.48,9.48,6.8,10.13a4.56,4.56,0,0,0-.47,4.32s.48.68,1.08,1.43L4.08,19.21a.55.55,0,0,0-.19.42A.54.54,0,0,0,4,20Zm4.21-8.46L11,8.76v3.54L8.83,14.46A7.1,7.1,0,0,1,8,13.37,2.49,2.49,0,0,1,8.21,11.54ZM13,6.76v3.54l-1,1V7.76Zm5.85,1A3.66,3.66,0,0,1,18.62,9H15.71l1.65-1.65-.71-.71L14,9.26V5.87a4.72,4.72,0,0,1,2.22-.72l2.58.05ZM9.53,15.17,14.71,10h3.43a2.88,2.88,0,0,1-.37.48L16.65,11.6l-1.05-.06c-1.68-.1-1.93-.12-2.3.25-.61.6-.23,1.24.34,2.22l.16.27c-.83.82-1.42,1.39-1.42,1.39a2,2,0,0,1-1.86.32A9.08,9.08,0,0,1,9.53,15.17Z"/>
  </g>
</svg>
