<svg xmlns="http://www.w3.org/2000/svg" viewBox="0 0 32 32">
  <title>[icons_32_pt1]</title>
  <g id="scales">
    <path id="shape" d="M24.85,16.34A2.5,2.5,0,0,0,26.5,14h-1a1.5,1.5,0,0,1-1,1.41l0-.08a.52.52,0,0,0-.94,0l0,.08a1.5,1.5,0,0,1-1-1.41V13H17V10h-.29l1.92-1.92L16,3.49,13.38,8.08,15.29,10H15v3H9.51v1a1.5,1.5,0,0,1-1,1.41l0-.08a.52.52,0,0,0-.94,0l0,.08A1.5,1.5,0,0,1,6.5,14h-1a2.5,2.5,0,0,0,1.65,2.34l-2.61,7s0,.16,0,.19h0v0a3.5,3.5,0,0,0,7,0v0h0s-2.65-7.16-2.65-7.16A2.5,2.5,0,0,0,10.5,14H15V26H13v1H11v1H21V27H19V26H17V14h4.5a2.5,2.5,0,0,0,1.65,2.34s-2.63,7-2.63,7.07a.47.47,0,0,0,0,.09h0v0a3.5,3.5,0,0,0,7,0v0h0S24.85,16.34,24.85,16.34ZM16,5.51l1.38,2.41L16,9.29,14.62,7.92ZM8,26a2.51,2.51,0,0,1-2.45-2h4.9A2.51,2.51,0,0,1,8,26Zm2.28-3H5.72L8,16.92ZM24,16.92,26.28,23H21.72ZM24,26a2.51,2.51,0,0,1-2.45-2h4.9A2.51,2.51,0,0,1,24,26Z"/>
  </g>
</svg>
