<svg xmlns="http://www.w3.org/2000/svg" viewBox="0 0 32 32">
  <title>icons_32_pt2</title>
  <g id="scales-history">
    <path id="circle" d="M23.5,8A4.5,4.5,0,1,0,28,12.5,4.5,4.5,0,0,0,23.5,8Zm0,8A3.5,3.5,0,1,1,27,12.5,3.5,3.5,0,0,1,23.5,16Z"/>
    <polygon id="clockHands" points="24 12 24 10 23 10 23 13 26 13 26 12 24 12"/>
    <path id="scaleR" d="M27.47,23.32v0h0l-2.11-5.63a5.46,5.46,0,0,1-1,.25L26.28,23H21.72l1.88-5h-.1a5.51,5.51,0,0,1-.94-.09l-2,5.39h0v0a2.43,2.43,0,0,1,0,.18h0v0a3.5,3.5,0,0,0,7,0v0h0a2.43,2.43,0,0,1,0-.18ZM24,26a2.51,2.51,0,0,1-2.45-2h4.9A2.51,2.51,0,0,1,24,26Z"/>
    <path id="scaleL" d="M19,26H17V14h1.21A5.47,5.47,0,0,1,18,13H17V10h-.29l1.92-1.92L16,3.49,13.38,8.08,15.29,10H15v3H9.51v1a1.5,1.5,0,0,1-1,1.41l0-.08a.52.52,0,0,0-.94,0l0,.08A1.5,1.5,0,0,1,6.5,14h-1a2.5,2.5,0,0,0,1.65,2.34l-2.61,7h0v0a2.43,2.43,0,0,1,0,.18h0v0a3.5,3.5,0,0,0,7,0v0h0a2.43,2.43,0,0,1,0-.18v0h0l-2.61-7A2.5,2.5,0,0,0,10.5,14H15V26H13v1H11v1H21V27H19ZM8,26a2.51,2.51,0,0,1-2.45-2h4.9A2.51,2.51,0,0,1,8,26Zm2.28-3H5.72L8,16.92ZM14.62,7.92,16,5.51l1.38,2.41L16,9.29Z"/>
  </g>
</svg>
