<svg xmlns="http://www.w3.org/2000/svg" viewBox="0 0 64 64">
  <title>icons_64</title>
  <g id="MouseScroll">
    <path d="M25,48.4878829 L25,51.6219475 C19.8243184,50.2898192 16,45.5915183 16,40 L16,23 C16,14.163444 23.163444,7 32,7 C40.836556,7 48,14.163444 48,23 L48,40 C48,45.5915183 44.1756816,50.2898192 39,51.6219475 L39,48.4878829 C42.4955771,47.2523737 45,43.9186565 45,40 L45,23 C45,15.8202983 39.1797017,10 32,10 C24.8202983,10 19,15.8202983 19,23 L19,40 C19,43.9186565 21.5044229,47.2523737 25,48.4878829 L25,48.4878829 Z"></path>
    <polygon points="31 53.66 28.29 51.28 26.91 52.72 32 57.38 37.19 52.73 35.81 51.27 33 53.68 33 46 31 46"></polygon>
    <rect x="31" y="40" width="2" height="4"></rect>
    <rect x="31" y="36" width="2" height="2"></rect>
    <rect x="31" y="33" width="2" height="1"></rect>
    <rect x="30" y="14" width="4" height="8" rx="2"></rect>
  </g>
</svg>