<svg xmlns="http://www.w3.org/2000/svg" viewBox="0 0 32 32">
  <title>[icons_32_pt1]</title>
  <g id="scroll-search">
    <path id="search-2" data-name="search" d="M26,23a1,1,0,0,0,.71-1.71L24.3,18.89A4.46,4.46,0,0,0,25,16.5,4.5,4.5,0,1,0,20.5,21a4.46,4.46,0,0,0,2.39-.7l2.41,2.41A1,1,0,0,0,26,23Zm-5.5-4A2.5,2.5,0,1,1,23,16.5,2.5,2.5,0,0,1,20.5,19Z"/>
    <rect id="line5" x="11" y="17" width="3" height="1"/>
    <rect id="line4" x="11" y="15" width="3" height="1"/>
    <rect id="line3" x="11" y="13" width="4" height="1"/>
    <rect id="line2" x="11" y="11" width="6" height="1"/>
    <rect id="line1" x="11" y="9" width="10" height="1"/>
    <path id="scroll" d="M25.5,4H12A5,5,0,0,0,7,9V21H4v3.5A3.55,3.55,0,0,0,7,28H21.25a4.3,4.3,0,0,0,1-.22A4,4,0,0,0,25,24H23a2,2,0,0,1-1.91,2A5.29,5.29,0,0,1,21,25V22.47l-.5,0a6,6,0,0,1-4-1.5H9V9a3,3,0,0,1,3-3H23v5.05a6,6,0,0,1,1.46.95H25V11h3V6.51A2.5,2.5,0,0,0,25.5,4ZM19,23v2a7.51,7.51,0,0,0,.06,1H7.51A1.51,1.51,0,0,1,6,24.5V23ZM26,9H25V7a2,2,0,0,1,.18-1h.32a.5.5,0,0,1,.5.51Z"/>
  </g>
</svg>
