<svg xmlns="http://www.w3.org/2000/svg" viewBox="0 0 32 32">
  <title>icons_32_pt2</title>
  <g id="scroll">
    <rect id="line5" x="11" y="17" width="8" height="1"/>
    <rect id="line4" x="11" y="15" width="10" height="1"/>
    <rect id="line3" x="11" y="13" width="10" height="1"/>
    <rect id="line2" x="11" y="11" width="10" height="1"/>
    <rect id="line1" x="11" y="9" width="10" height="1"/>
    <path id="scroll-2" data-name="scroll" d="M23,24a2,2,0,0,1-1.91,2A5.29,5.29,0,0,1,21,25V21H9V9a3,3,0,0,1,3-3H23Zm2-13h3V6.51A2.5,2.5,0,0,0,25.5,4H12A5,5,0,0,0,7,9V21H4v3.5a3.5,3.5,0,0,0,3,3.45V28H21.25a4.3,4.3,0,0,0,1-.22A4,4,0,0,0,25,24ZM19,23v2a7.51,7.51,0,0,0,.06,1H7.51A1.51,1.51,0,0,1,6,24.5V23ZM26,9H25V7a2,2,0,0,1,.18-1h.32a.5.5,0,0,1,.5.51Z"/>
  </g>
</svg>
