<svg xmlns="http://www.w3.org/2000/svg" viewBox="0 0 32 32">
  <title>[icons_32_pt1]</title>
  <g id="edgar">
    <path id="shape" d="M16,5A10,10,0,0,0,8.74,21.85L4.27,26.32a1,1,0,1,0,1.41,1.41l4.56-4.56A10,10,0,1,0,16,5Zm6,11c0,1-1,1.64-2,1.93V13.71a3.9,3.9,0,0,0,2.49-3.35h0A7.94,7.94,0,0,1,23.41,18h-1.6A6.16,6.16,0,0,0,23,16ZM16,7a7.69,7.69,0,0,1,5.64,2.47L21,9.64V10a2.79,2.79,0,0,1-2,3H18V9c0-.2,1-1,1-1H15a1,1,0,0,0-1,1h0a2,2,0,0,0-1.25.5c-.5.5-.25,1.5-.25,1.5H15a3.23,3.23,0,0,1-1.13,2h-.72A2.82,2.82,0,0,1,11,10V9.64l-.64-.17A7.69,7.69,0,0,1,16,7Zm1,10v4a7.6,7.6,0,0,0-1,.61A7.6,7.6,0,0,0,15,21V17ZM9.08,19H12a2.25,2.25,0,0,0,.64,1.64l-.79,1.19A8,8,0,0,1,9.08,19ZM13,19V17h1v3.43C13.3,20,13,19.66,13,19Zm2-9V9h2v4H15.19A4.17,4.17,0,0,0,16,10.5V10Zm3,7h1v2c0,.66-.3,1-1,1.43ZM9.52,10.33l.11,0A3.85,3.85,0,0,0,12,13.69v4.24c-1-.28-2-.93-2-1.93H9a6.16,6.16,0,0,0,1.19,2H8.59a7.94,7.94,0,0,1,.93-7.67Zm3.22,12,.69-1c.92.56,2,.94,2.57,1.74.54-.81,1.65-1.18,2.57-1.74l.69,1a7.92,7.92,0,0,1-6.53,0Zm7.41-.47-.79-1.19A2.25,2.25,0,0,0,20,19h2.92A8,8,0,0,1,20.15,21.83Z"/>
  </g>
</svg>
