<svg xmlns="http://www.w3.org/2000/svg" viewBox="0 0 32 32">
  <title>[icons_32_pt1]</title>
  <g id="section">
    <path id="pad" d="M23.5,4H7.5A3.28,3.28,0,0,0,4,7,3,3,0,0,0,6,9.7V28H24V25h3V7A3.28,3.28,0,0,0,23.5,4ZM7.5,6H20.22a2.43,2.43,0,0,0,0,2H7.5C6.7,8,6,7.53,6,7S6.7,6,7.5,6ZM10,10h1v2.69l-1-.5ZM8,26V10H9v2.81l3,1.5V10H22V26Zm16-3V9a2.81,2.81,0,0,1-1.54-.6A1.36,1.36,0,0,1,22,7c.06-.61.67-1,1.5-1A1.45,1.45,0,0,1,25,7.19V23Z"/>
    <path id="symbol" d="M16.66,22.9a3,3,0,0,1-1.4.26A4.85,4.85,0,0,1,14.12,23c-.44-.1-1.12-.24-1.12-.41v1c0,.3,1.29.44,2.29.44a3.94,3.94,0,0,0,2.21-.52,1.65,1.65,0,0,0,.78-1.48,1.72,1.72,0,0,0-1.06-1.55,2,2,0,0,0,.78-.76,2.14,2.14,0,0,0,.28-1.1,1.71,1.71,0,0,0-.51-1.25,5,5,0,0,0-1.78-1,7,7,0,0,1-1.47-.66.83.83,0,0,1-.42-.7.67.67,0,0,1,.4-.64,2.73,2.73,0,0,1,1.19-.2,5.07,5.07,0,0,1,1,.09,6.87,6.87,0,0,1,1.13.36l.36-.9a6.34,6.34,0,0,0-1.21-.37,6.68,6.68,0,0,0-1.19-.1,3.68,3.68,0,0,0-2.05.48,1.49,1.49,0,0,0-.71,1.3,1.54,1.54,0,0,0,.29,1,2.4,2.4,0,0,0,.79.65,1.92,1.92,0,0,0-.83.72A1.94,1.94,0,0,0,13,18.47a1.81,1.81,0,0,0,.23.92,2.16,2.16,0,0,0,.68.7,7.06,7.06,0,0,0,1.43.66,10.31,10.31,0,0,1,1.16.49,1.79,1.79,0,0,1,.53.4.78.78,0,0,1,.16.51A.81.81,0,0,1,16.66,22.9Zm-.33-2.78L16,20a6.11,6.11,0,0,1-1.59-.78,1.09,1.09,0,0,1-.45-.89,1.15,1.15,0,0,1,.29-.77A1.49,1.49,0,0,1,15,17.1a6.06,6.06,0,0,1,1.77.77,1.15,1.15,0,0,1,.5,1A1.55,1.55,0,0,1,16.33,20.12Z"/>
  </g>
</svg>
