<svg xmlns="http://www.w3.org/2000/svg" viewBox="0 0 32 32">
  <title>[icons_32_pt1]</title>
  <g id="secure-network">
    <path id="lock" d="M26.63,20.51a1.52,1.52,0,0,0-2.26,0A3.45,3.45,0,0,0,24,23H23v5h5V23H27A3.45,3.45,0,0,0,26.63,20.51ZM26.08,23H24.92a4.35,4.35,0,0,1,.22-1.85.51.51,0,0,1,.71,0A4.35,4.35,0,0,1,26.08,23Z"/>
    <path id="globe-2" data-name="globe" d="M16,4a12,12,0,0,0,0,24h5V26H19.21a14.49,14.49,0,0,0,4.24-9H26v1h2V16A12,12,0,0,0,16,4Zm8,6H21.89a16.73,16.73,0,0,0-2.46-3.38A10,10,0,0,1,24,10ZM15.15,26A16.3,16.3,0,0,1,12,22h4v4C15.71,26,15.43,26,15.15,26Zm-3.58-5a11.94,11.94,0,0,1-1-4H16v4ZM7.35,11h3.3a12.82,12.82,0,0,0-1.14,5H6A9.92,9.92,0,0,1,7.35,11Zm-1.3,6h3.5a12.81,12.81,0,0,0,.92,4H7.35A9.91,9.91,0,0,1,6.05,17Zm4.46-1a11.93,11.93,0,0,1,1.24-5H16v5ZM15.61,6,16,6v4H12.29A16.82,16.82,0,0,1,15.61,6ZM17,11h4.25a11.93,11.93,0,0,1,1.24,5H17Zm0-1V6.05l.52.08A16.73,16.73,0,0,1,20.72,10ZM14,6.21A17,17,0,0,0,11.12,10H8A10,10,0,0,1,14,6.21ZM8,22h2.91a16.4,16.4,0,0,0,2.55,3.67A10,10,0,0,1,8,22Zm9,4V22h4a16.33,16.33,0,0,1-3.15,4Zm4.43-5H17V17h5.45A11.94,11.94,0,0,1,21.43,21Zm2.06-5a12.82,12.82,0,0,0-1.14-5h2.29A9.92,9.92,0,0,1,26,16Z"/>
  </g>
</svg>
