<svg xmlns="http://www.w3.org/2000/svg" viewBox="0 0 24 24">
  <title>1</title>
  <g id="show">
    <path id="eyeball" d="M12,4.5A10.2,10.2,0,0,0,4.32,7.93,9.29,9.29,0,0,0,2.23,12a9.29,9.29,0,0,0,2.09,4.07,10.32,10.32,0,0,0,15.37,0A9.29,9.29,0,0,0,21.77,12a9.29,9.29,0,0,0-2.09-4.07A10.2,10.2,0,0,0,12,4.5Zm0,13A7.94,7.94,0,0,1,4.3,12,7.94,7.94,0,0,1,12,6.5,7.94,7.94,0,0,1,19.7,12,7.94,7.94,0,0,1,12,17.5Z"/>
    <path id="iris" d="M12,7a4,4,0,1,0,4,4A4,4,0,0,0,12,7Zm0,4.5A1.5,1.5,0,1,1,13.5,10,1.5,1.5,0,0,1,12,11.5Z"/>
  </g>
</svg>
