<svg xmlns="http://www.w3.org/2000/svg" viewBox="0 0 32 32">
  <title>[icons_32_pt1]</title>
  <g id="spotlight">
    <path id="shape" d="M27.14,10,25,7.9l.71-.71L24.3,5.78l-.71.71L21.47,4.36a1,1,0,0,0-1.4,0L17.74,6.68a4.48,4.48,0,0,0-5.11.87L9.45,10.73,14,15.28l-9.2,8.14,0,0A2.12,2.12,0,0,0,4,25c0,1.75,2.5,3,5.5,3,2.75,0,5.08-1.05,5.44-2.58h0l2.35-6.83L20.77,22l3.18-3.18a4.49,4.49,0,0,0,.87-5.11l2.32-2.32A1,1,0,0,0,27.14,10ZM9.5,27C7,27,5,26,5,25s2-2,4.5-2S14,24,14,25,12,27,9.5,27Zm5-3.22C13.7,22.7,11.74,22,9.5,22a10.23,10.23,0,0,0-1.61.13h0L14.71,16l1.83,1.83Zm8-6.33-1.75,1.78-8.49-8.51L14.05,9a2.5,2.5,0,0,1,3.54,0l0,0L18,8.8l4.65,4.65-.15.46h0A2.5,2.5,0,0,1,22.54,17.45Zm.66-4.91L19,8.3l1.81-1.82L25,10.72Z"/>
  </g>
</svg>
