<svg xmlns="http://www.w3.org/2000/svg" viewBox="0 0 64 64">
  <title>icons_64</title>
  <g id="Tap">
    <path d="M23,32.6375263 L23,17.5 C23,15.5670034 24.5670034,14 26.5,14 L27.5,14 C29.4329966,14 31,15.5670034 31,17.5 L31,24.0354444 C31.1633015,24.012086 31.3302393,24 31.5,24 L32.5,24 C33.9316405,24 35.1625203,24.859559 35.7047117,26.0907495 C35.9602081,26.0313846 36.2264389,26 36.5,26 L37.5,26 C39.277025,26 40.7447372,27.3243258 40.970024,29.0398648 C41.1428551,29.0136124 41.3198379,29 41.5,29 L42.5,29 C44.4329966,29 46,30.5670034 46,32.5 L46,42.9633865 C46,46.8516763 44.9923552,50.6736047 43.0753269,54.0564733 L42.4048987,55.2395391 C41.9964625,55.9602828 41.0810814,56.213458 40.3603378,55.8050218 C39.6395941,55.3965856 39.3864189,54.4812045 39.7948551,53.7604609 L40.4652833,52.5773951 C42.1267079,49.6455756 43,46.3332377 43,42.9633865 L43,32.5 C43,32.2238576 42.7761424,32 42.5,32 L41.5,32 C41.2238576,32 41,32.2238576 41,32.5 L41,34.5 C41,35.3284271 40.3284271,36 39.5,36 C38.6715729,36 38,35.3284271 38,34.5 L38,29.5 C38,29.2238576 37.7761424,29 37.5,29 L36.5,29 C36.2238576,29 36,29.2238576 36,29.5 L36,33.5 C36,34.3284271 35.3284271,35 34.5,35 C33.6715729,35 33,34.3284271 33,33.5 L33,27.5 C33,27.2238576 32.7761424,27 32.5,27 L31.5,27 C31.2238576,27 31,27.2238576 31,27.5 L31,33.5 C31,34.3284271 30.3284271,35 29.5,35 C28.6715729,35 28,34.3284271 28,33.5 L28,17.5 C28,17.2238576 27.7761424,17 27.5,17 L26.5,17 C26.2238576,17 26,17.2238576 26,17.5 L26,33.4714735 C26.0003277,33.489571 26.0003269,33.5076559 26,33.5257194 L26,39.5 C26,40.3284271 25.3284271,41 24.5,41 C23.6715729,41 23,40.3284271 23,39.5 L23,36.1087753 L21.7453862,36.8390867 C21.2838864,37.1077259 21,37.6014565 21,38.13545 L21,43.1913533 C21,43.6880531 21.1479566,44.173495 21.4249965,44.5857565 L27.4650063,53.5738608 C27.9270709,54.2614564 27.7442418,55.1934402 27.0566461,55.6555048 C26.3690504,56.1175694 25.4370667,55.9347403 24.9750021,55.2471446 L18.9349923,46.2590404 C18.3255044,45.352065 18,44.2840928 18,43.1913533 L18,38.13545 C18,36.5334695 18.8516593,35.0522777 20.2361585,34.2463599 L23,32.6375263 Z"></path>
    <rect x="33" y="17" width="6" height="1"></rect>
    <rect x="15" y="17" width="6" height="1"></rect>
    <rect transform="translate(20.504546, 11.500931) rotate(-45.000000) translate(-20.504546, -11.500931) " x="20.0045457" y="7.96593056" width="1" height="7.07"></rect>
    <rect transform="translate(33.504546, 11.500931) rotate(45.000000) translate(-33.504546, -11.500931) " x="33.0045457" y="7.96593056" width="1" height="7.07"></rect>
    <rect x="26" y="7" width="1" height="6"></rect>
  </g>
</svg>
