<svg xmlns="http://www.w3.org/2000/svg" viewBox="0 0 32 32">
  <title>[icons_32_pt1]</title>
  <g id="tools-design">
    <path id="shape" d="M21.66,17.41l5.66-5.66a2,2,0,0,0,0-2.82L23.07,4.68a2,2,0,0,0-2.83,0l-5.66,5.66L10.13,5.89,4.83,4.83l1.06,5.3,4.45,4.46L4.69,20.24a2,2,0,0,0,0,2.83l4.25,4.3a2,2,0,0,0,1.41.63h0a2,2,0,0,0,1.41-.63L17.4,21.7l5.68,5.68a2,2,0,0,0,1.41.62h0a2,2,0,0,0,1.42-.64l1.4-1.43a2,2,0,0,0,0-2.86Zm-5-6.36,1.41,1.42.71-.71-1.41-1.42.71-.71L19.54,11l.71-.71L18.83,8.93l.71-.71,1.42,1.42.71-.71L20.24,7.51,21.65,6.1l4.25,4.24L20.24,16,16,11.76Zm-9-1.91L7.38,7.38l1.77.35.49.49L8.22,9.64ZM10.35,25.9,6.1,21.66l1.41-1.41,1.41,1.41L9.64,21,8.22,19.54l.71-.71,1.41,1.41.71-.71L9.64,18.12l.71-.71,1.41,1.41.71-.71-1.41-1.41.7-.7L16,20.26ZM8.93,10.34l1.41-1.41L23.77,22.37l-1.41,1.41ZM24.49,25.9l-1.42-1.42,1.41-1.41,1.41,1.41Z"/>
  </g>
</svg>
