<svg xmlns="http://www.w3.org/2000/svg" viewBox="0 0 32 32">
  <title>icons_32_pt2</title>
  <g id="tools-labor">
    <path id="shape" d="M19.16,15.68,22,12.86a4,4,0,0,0,5.7-5L25,10.57,22.86,8.45l2.7-2.7a4,4,0,0,0-5,5.7l-2.82,2.82-4-4a8.22,8.22,0,0,0,.76-1.3,16.21,16.21,0,0,0,.41-1.81l2.79-2.79-1.16,0a45.52,45.52,0,0,0-4.86.09A14.18,14.18,0,0,0,8.93,5.52L6.65,7.73l0,1.77H4.84L3.3,11l4.87,4.87,1.54-1.54V12.58h1.4l4.16,4.16L6.72,25.29a1,1,0,0,0,1.41,1.41l8.55-8.55,8.3,8.3a1,1,0,0,0,1.41,0l1.06-1.06a1,1,0,0,0,0-1.41ZM8.71,11.58V14l-.54.54L4.71,11l.54-.54H7.62l0-2.35L9.46,6.37a12.89,12.89,0,0,1,2.34-1,30.1,30.1,0,0,1,3.51-.1L13.95,6.64l0,.15a18.13,18.13,0,0,1-.39,1.79,8.19,8.19,0,0,1-.71,1.16l-2.06,1.83Zm17,14.17L12.25,12.31l1.06-1.06L26.75,24.69Z"/>
  </g>
</svg>
