<svg id="training" xmlns="http://www.w3.org/2000/svg" viewBox="0 0 32 32">
  <title>icons_32_pt2</title>
  <rect id="line3" x="14" y="12" width="6" height="1"/>
  <rect id="line2" x="13" y="10" width="11" height="1"/>
  <rect id="line1" x="13" y="8" width="11" height="1"/>
  <path id="screen" d="M26,4H19V3H18V4H11A2,2,0,0,0,9,6v5h2V6H26V16H15v2h2.33L16,20.33a6.3,6.3,0,0,1,.5,1.13l2-3.46h0l2.35,4.08.87-.5L19.67,18H26a2,2,0,0,0,2-2V6A2,2,0,0,0,26,4Z"/>
  <path id="body" d="M10,28a20.27,20.27,0,0,1-5.48-.82L4.12,27l-.05-.41A9.15,9.15,0,0,1,4,25.47c0-2.6.21-5.07,2.72-6.58l.51-.31.33.49c1.13,1.67,1.95,2,2.43,2s1.31-.35,2.43-2l.33-.49.51.31c2.52,1.51,2.72,4,2.72,6.58,0,.37-.06,1.09-.06,1.09l0,.39-.36.14A14.78,14.78,0,0,1,10,28Z"/>
  <path id="head" d="M13,15c0,1.66-1.34,4-3,4s-3-2.34-3-4a3,3,0,0,1,6,0Z"/>
</svg>
