<svg xmlns="http://www.w3.org/2000/svg" viewBox="0 0 32 32">
  <defs>
    <style>
      .cls-1 {
        fill: #429cd6;
      }
    </style>
  </defs>
  <title>icons_32_pt2</title>
  <g id="twitter">
    <path id="shape" class="cls-1" d="M12.29,24.13A11.6,11.6,0,0,0,24,12.45c0-.18,0-.35,0-.53A8.35,8.35,0,0,0,26,9.8a8.19,8.19,0,0,1-2.36.65,4.12,4.12,0,0,0,1.8-2.27,8.22,8.22,0,0,1-2.61,1,4.11,4.11,0,0,0-7,3.74A11.65,11.65,0,0,1,7.39,8.62,4.11,4.11,0,0,0,8.66,14.1a4.07,4.07,0,0,1-1.86-.51v.05a4.1,4.1,0,0,0,3.29,4,4.1,4.1,0,0,1-1.85.07,4.11,4.11,0,0,0,3.83,2.85A8.23,8.23,0,0,1,7,22.34a8.35,8.35,0,0,1-1-.06,11.62,11.62,0,0,0,6.29,1.84"/>
  </g>
</svg>
