<svg xmlns="http://www.w3.org/2000/svg" viewBox="0 0 24 24">
  <defs>
    <style>
      .cls-1 {
        fill: #29abe2;
      }
    </style>
  </defs>
  <title>[icons_24_pt1]</title>
  <g id="twitter">
    <path id="shape" class="cls-1" d="M9.22,18.09A8.7,8.7,0,0,0,18,9.34c0-.13,0-.27,0-.4A6.26,6.26,0,0,0,19.5,7.35a6.14,6.14,0,0,1-1.77.48,3.09,3.09,0,0,0,1.35-1.7,6.17,6.17,0,0,1-2,.75,3.08,3.08,0,0,0-5.24,2.81A8.74,8.74,0,0,1,5.54,6.47a3.08,3.08,0,0,0,1,4.11,3.05,3.05,0,0,1-1.4-.39v0a3.08,3.08,0,0,0,2.47,3,3.07,3.07,0,0,1-1.39.05,3.08,3.08,0,0,0,2.88,2.14,6.18,6.18,0,0,1-3.82,1.32,6.26,6.26,0,0,1-.73,0,8.71,8.71,0,0,0,4.72,1.38"/>
  </g>
</svg>
