<svg xmlns="http://www.w3.org/2000/svg" viewBox="0 0 24 24">
  <title>[icons_24_pt1]</title>
  <g id="url">
    <path id="left" d="M13.24,13.76l-1.48,1.48.29.22L9,18.55,5.45,15l3-3.09.29.29,1.48-1.48-.29-.29a2.05,2.05,0,0,0-2.9,0L4,13.55a2.05,2.05,0,0,0,0,2.9L7.55,20a2.05,2.05,0,0,0,2.9,0l3.09-3.09a2.05,2.05,0,0,0,0-2.9Z"/>
    <rect id="middle" x="7.76" y="11" width="8.49" height="2" transform="translate(-4.97 12) rotate(-45)"/>
    <path id="right" d="M20,7.55,16.45,4a2.05,2.05,0,0,0-2.9,0L10.46,7.05a2.05,2.05,0,0,0,0,2.9l.29.29,1.48-1.48-.29-.22,3-3.09L18.55,9l-3,3.09-.29-.29-1.48,1.48.29.29a2.05,2.05,0,0,0,2.9,0L20,10.45A2.05,2.05,0,0,0,20,7.55Z"/>
  </g>
</svg>
