<svg xmlns="http://www.w3.org/2000/svg" viewBox="0 0 32 32">
  <title>[icons_32_pt1]</title>
  <g id="url">
    <path id="left" d="M11.55,28.5a2.71,2.71,0,0,1-1.93-.8L4.3,22.38a2.6,2.6,0,0,1-.83-2,2.68,2.68,0,0,1,.85-1.93l4.56-4.56a2.65,2.65,0,0,1,1.95-1,2.54,2.54,0,0,1,1.93,1l.76.76-1.76,1.76L11,15.7a.24.24,0,0,0-.34,0L6.05,20.28a.24.24,0,0,0,0,.34l5.32,5.32a.24.24,0,0,0,.34,0l4.58-4.58a.24.24,0,0,0,0-.34l-.79-.79,1.76-1.76.79.79a2.57,2.57,0,0,1,0,3.84l-4.59,4.6A2.7,2.7,0,0,1,11.55,28.5Z"/>
    <rect id="middle" x="9.7" y="14.51" width="12.59" height="2.97" rx="1.48" ry="1.48" transform="translate(-6.63 16) rotate(-45)"/>
    <path id="right" d="M21.19,18.85a2.7,2.7,0,0,1-1.93-.8l-.79-.79,1.76-1.76.79.79a.24.24,0,0,0,.34,0l4.58-4.58a.24.24,0,0,0,0-.34L20.62,6.05a.24.24,0,0,0-.34,0L15.7,10.63a.24.24,0,0,0,0,.34l.79.79-1.76,1.76-.79-.79A2.42,2.42,0,0,1,13,11a2.86,2.86,0,0,1,.9-2.1L18.53,4.3a2.79,2.79,0,0,1,1.94-.9,2.66,2.66,0,0,1,1.92.91L27.7,9.62a2.54,2.54,0,0,1,.86,1.83,2.81,2.81,0,0,1-.86,2l-4.58,4.58A2.71,2.71,0,0,1,21.19,18.85Z"/>
  </g>
</svg>
