<svg xmlns="http://www.w3.org/2000/svg" viewBox="0 0 32 32">
  <title>[icons_32_pt1]</title>
  <g id="user">
    <path id="head" d="M21.88,17.53c1.61,1.31,2.12,3.2,2.12,7.06,0,0,0,.09,0,.14a30.49,30.49,0,0,1-8,.86,39.87,39.87,0,0,1-8-.9v-.1c0-3.86.51-5.75,2.12-7.06,1.94,2,3.91,3.06,5.88,3.06s3.94-1,5.88-3.06m-.39-2.61c-1.28,1.63-3.27,3.67-5.5,3.67s-4.22-2-5.5-3.67c-3.86,2-4.5,5-4.5,9.67a12.11,12.11,0,0,0,.12,1.72A42.71,42.71,0,0,0,16,27.59a30.28,30.28,0,0,0,9.89-1.34s.11-1.1.11-1.66c0-4.65-.64-7.67-4.5-9.67Z"/>
    <path id="body" d="M16,6.41a3.46,3.46,0,0,1,2.5,1.17,3.31,3.31,0,0,1,.87,2.57c-.22,2.17-2.54,4.14-3.37,4.14-1,0-3.23-2.21-3.37-4.09a3.53,3.53,0,0,1,.95-2.69A3.34,3.34,0,0,1,16,6.41m0-2a5.53,5.53,0,0,0-5.36,5.94c.2,2.67,3,5.94,5.36,5.94,2,0,5.06-2.92,5.36-5.94A5.48,5.48,0,0,0,16,4.41Z"/>
  </g>
</svg>
