<svg xmlns="http://www.w3.org/2000/svg" viewBox="0 0 32 32">
  <title>[icons_32_pt1]</title>
  <g id="user-group">
    <path id="bodies" d="M27.17,10.95l-.41-.24-.27.39c-.9,1.33-1.55,1.61-1.94,1.61s-1-.28-1.94-1.61l-.27-.39-.41.24a4.45,4.45,0,0,0-2.12,3.8,5,5,0,0,1-3.83,2,5,5,0,0,1-3.83-2,4.45,4.45,0,0,0-2.12-3.8l-.41-.24-.27.39c-.9,1.33-1.55,1.61-1.94,1.61s-1-.28-1.94-1.61l-.27-.39-.41.24c-2,1.2-2.17,3.17-2.17,5.24a7.45,7.45,0,0,0,.06.92l0,.33.32.09a16.16,16.16,0,0,0,4.36.66c.46,0,.9,0,1.31,0a19.67,19.67,0,0,0-.54,5.33,14.46,14.46,0,0,0,.1,1.66A27.21,27.21,0,0,0,16,26.36a19.38,19.38,0,0,0,7.7-1.29s.09-1.06.09-1.6a19.55,19.55,0,0,0-.55-5.36c.51,0,1,.08,1.32.08a11.77,11.77,0,0,0,4.41-.7l.29-.11,0-.31s.05-.57.05-.87C29.34,14.11,29.17,12.15,27.17,10.95ZM7.44,17.18a15.24,15.24,0,0,1-3.76-.53q0-.23,0-.46c0-2,.21-3.27,1.3-4.12,1.66,2.2,3.29,2.2,5,0a3.38,3.38,0,0,1,1.22,2.47,6.47,6.47,0,0,0-2,2.56h0A15.76,15.76,0,0,1,7.44,17.18Zm14.34,6.45a19.1,19.1,0,0,1-5.79.73,24.34,24.34,0,0,1-5.79-.78s0-.08,0-.11c0-3.4.33-5.26,1.3-6.51A6.77,6.77,0,0,0,16,18.73a6.77,6.77,0,0,0,4.49-1.78c1,1.25,1.3,3.12,1.3,6.51C21.79,23.51,21.79,23.57,21.79,23.63Zm6.53-7a11.1,11.1,0,0,1-3.76.53,13.1,13.1,0,0,1-1.7-.12,6.47,6.47,0,0,0-2-2.52,3.38,3.38,0,0,1,1.22-2.47c1.66,2.2,3.29,2.2,5,0,1.09.85,1.3,2.1,1.3,4.12C28.34,16.31,28.33,16.5,28.32,16.65Z"/>
    <path id="head3" d="M28.05,9.66a.9.9,0,0,1-.87-.85c0-.07,0-.14,0-.21a2.68,2.68,0,1,0-5.34,0c.1,1.33,1.51,3,2.67,3a2.91,2.91,0,0,0,2-1.32,1.19,1.19,0,0,0,.67.26,1.27,1.27,0,0,0,1.23-.89A.91.91,0,0,1,28.05,9.66Zm-1.86-1a2.19,2.19,0,0,1-.19.55,2.52,2.52,0,0,1-1.45,1.33,2.6,2.6,0,0,1-1.67-2A1.65,1.65,0,0,1,22.94,8a4.28,4.28,0,0,0,1.62-.83A4.28,4.28,0,0,0,26.19,8a1.52,1.52,0,0,1,0,.52A1.76,1.76,0,0,1,26.19,8.68Z"/>
    <path id="head2" d="M16,15.68c-2.49,0-4.5-3-4.5-5.5a4.5,4.5,0,1,1,9,0C20.5,12.67,18.49,15.68,16,15.68Zm0-8a2.5,2.5,0,0,0-2.5,2.5c0,1.5,1.24,3.5,2.5,3.5s2.5-2,2.5-3.5A2.5,2.5,0,0,0,16,7.68Z"/>
    <path id="head1" d="M10,7.49A2.75,2.75,0,0,0,7.44,5.64a2.66,2.66,0,0,0-2,.92,2.75,2.75,0,0,0-.69,2c.1,1.33,1.51,3,2.67,3s2.52-1.45,2.67-3A2.59,2.59,0,0,0,10,7.49ZM7.44,10.56a2.6,2.6,0,0,1-1.67-2A1.74,1.74,0,0,1,6.2,7.25a4.34,4.34,0,0,0,2.15.53,5.11,5.11,0,0,0,.65,0,1.6,1.6,0,0,1,.12.77A2.66,2.66,0,0,1,7.44,10.56Z"/>
  </g>
</svg>
