<svg xmlns="http://www.w3.org/2000/svg" viewBox="0 0 24 24">
  <title>[icons_24_pt1]</title>
  <g id="user-group">
    <path id="rightBody" d="M19.41,10.71l-.3-.18-.19.29a2.72,2.72,0,0,1-1.18,1.13,7.9,7.9,0,0,1,1.2,4,7.3,7.3,0,0,0,1.79-.43l.21-.08,0-.23s0-.42,0-.64C21,13,20.88,11.59,19.41,10.71Z"/>
    <path id="rightHead" d="M19.25,8c0,1-.78,2.25-1.75,2.25S15.75,9,15.75,8a1.75,1.75,0,0,1,3.5,0Z"/>
    <path id="body" d="M12,20a20.27,20.27,0,0,1-5.48-.82L6.12,19l-.05-.41A9.15,9.15,0,0,1,6,17.47c0-2.6.21-5.07,2.72-6.58l.51-.31.33.49c1.13,1.67,1.95,2,2.43,2s1.31-.35,2.43-2l.33-.49.51.31c2.52,1.51,2.72,4,2.72,6.58,0,.37-.06,1.09-.06,1.09l0,.39-.36.14A14.78,14.78,0,0,1,12,20Z"/>
    <path id="head" d="M15,7c0,1.66-1.34,4-3,4S9,8.66,9,7a3,3,0,0,1,6,0Z"/>
    <path id="leftBody" d="M6.26,11.94a2.72,2.72,0,0,1-1.18-1.13l-.19-.29-.3.18C3.12,11.59,3,13,3,14.54a5.35,5.35,0,0,0,0,.67l0,.24.23.07a13,13,0,0,0,1.76.37A7.88,7.88,0,0,1,6.26,11.94Z"/>
    <path id="leftHead" d="M8.25,8c0,1-.78,2.25-1.75,2.25S4.75,9,4.75,8a1.75,1.75,0,0,1,3.5,0Z"/>
  </g>
</svg>
