<svg xmlns="http://www.w3.org/2000/svg" viewBox="0 0 32 32">
  <defs>
    <style>
      .cls-1 {
        fill-rule: evenodd;
      }
    </style>
  </defs>
  <title>[icons_32_pt1]</title>
  <g id="versions">
    <path id="shape" class="cls-1" d="M28,16l-5.54-2.75L28,10.5,18,5H14L3.52,10.5,9,13.24,3.52,16l5.72,2.85L3.65,22.07l12.09,6,12.12-6L22.3,18.83ZM15.76,20.42,8,16l4.32-2.16,3.44,1.72,3.38-1.69L23.5,16ZM14,7.56l2,.94,2-.94,5.51,2.94-7.76,3.94L8,10.51ZM7.86,21.93l4.3-2.51,3.6,2.16,3.65-2.13,4.25,2.48-7.91,3.92Z"/>
  </g>
</svg>
