<svg xmlns="http://www.w3.org/2000/svg" viewBox="0 0 24 24"><title>video</title><g id="email"><path d="M21.16,4.76,18,7.65V5.23A1.29,1.29,0,0,0,16.66,4H3.34A1.29,1.29,0,0,0,2,5.23v9.54A1.29,1.29,0,0,0,3.34,16h5L5.15,19.15a.48.48,0,0,0,0,.7.48.48,0,0,0,.7,0L9.7,16h.6l3.85,3.85a.48.48,0,0,0,.7,0,.48.48,0,0,0,0-.7L11.7,16h5A1.29,1.29,0,0,0,18,14.77V12.34l3.16,2.89a.5.5,0,0,0,.84-.37V5.13A.5.5,0,0,0,21.16,4.76ZM16,13.5a.5.5,0,0,1-.5.5H4.31A.31.31,0,0,1,4,13.69V12H14V11H4V6.5A.5.5,0,0,1,4.5,6h11a.5.5,0,0,1,.5.5Zm5,.22-3-2.67V8.93l3-2.65Z"/></g></svg>