<svg xmlns="http://www.w3.org/2000/svg" viewBox="0 0 24 24">
  <title>[icons_24_pt1]</title>
  <g id="view-grid">
    <path id="box4" d="M9.5,11h-5A1.5,1.5,0,0,1,3,9.5v-4A1.5,1.5,0,0,1,4.5,4h5A1.5,1.5,0,0,1,11,5.5v4A1.5,1.5,0,0,1,9.5,11ZM5,9H9V6H5Z"/>
    <path id="box3" d="M19.5,11h-5A1.5,1.5,0,0,1,13,9.5v-4A1.5,1.5,0,0,1,14.5,4h5A1.5,1.5,0,0,1,21,5.5v4A1.5,1.5,0,0,1,19.5,11ZM15,9h4V6H15Z"/>
    <path id="box2" d="M9.5,20h-5A1.5,1.5,0,0,1,3,18.5v-4A1.5,1.5,0,0,1,4.5,13h5A1.5,1.5,0,0,1,11,14.5v4A1.5,1.5,0,0,1,9.5,20ZM5,18H9V15H5Z"/>
    <path id="box1" d="M19.5,20h-5A1.5,1.5,0,0,1,13,18.5v-4A1.5,1.5,0,0,1,14.5,13h5A1.5,1.5,0,0,1,21,14.5v4A1.5,1.5,0,0,1,19.5,20ZM15,18h4V15H15Z"/>
  </g>
</svg>
