<svg xmlns="http://www.w3.org/2000/svg" viewBox="0 0 32 32">
  <title>[icons_32_pt1]</title>
  <g id="warning">
    <path id="triangle" d="M27.86,22l-9-15.57A3.38,3.38,0,0,0,16,4.53h0a3.38,3.38,0,0,0-2.87,1.94L4.14,22a3.38,3.38,0,0,0-.25,3.45A3.38,3.38,0,0,0,7,27H25a3.38,3.38,0,0,0,3.11-1.51A3.38,3.38,0,0,0,27.86,22Zm-1.49,2.45A1.55,1.55,0,0,1,25,25H7a1.55,1.55,0,0,1-1.38-.52A1.55,1.55,0,0,1,5.87,23l9-15.57c.34-.6.76-.94,1.14-.94s.79.34,1.14.94l9,15.57A1.55,1.55,0,0,1,26.38,24.49Z"/>
    <polygon id="line" points="17 18 17.5 11 14.5 11 15 18 17 18"/>
    <path id="circle" d="M16,19.6a1.63,1.63,0,0,0-1.15.37,1.35,1.35,0,0,0-.4,1,1.32,1.32,0,0,0,.41,1A1.64,1.64,0,0,0,16,22.4,1.58,1.58,0,0,0,17.13,22a1.33,1.33,0,0,0,.4-1,1.37,1.37,0,0,0-.38-1A1.57,1.57,0,0,0,16,19.6Z"/>
  </g>
</svg>
