<svg xmlns="http://www.w3.org/2000/svg" viewBox="0 0 32 32">
  <title>icons_32_pt2</title>
  <g id="webinar">
    <path id="screen" d="M26,5H6A2,2,0,0,0,4,7V22a2,2,0,0,0,2,2h7v3H11v1H21V27H19V24h7a2,2,0,0,0,2-2V7A2,2,0,0,0,26,5ZM18,27H14V24h4ZM6,22V7H26V22Z"/>
    <path id="comment2" d="M22.5,11H20v1h2.5a.52.52,0,0,1,.5.52v4a.5.5,0,0,1-.5.5H22v2l-2.78-2H13.09a1.49,1.49,0,0,0,1.41,1h4.42L23,21V18a1.33,1.33,0,0,0,1-1.47v-4A1.5,1.5,0,0,0,22.5,11Z"/>
    <path id="comment1" d="M9,19V16a1.33,1.33,0,0,1-1-1.47v-4A1.5,1.5,0,0,1,9.5,9h8a1.5,1.5,0,0,1,1.5,1.5v4A1.48,1.48,0,0,1,17.5,16H13.08Zm.5-9a.52.52,0,0,0-.5.52v4a.5.5,0,0,0,.5.5H10v2l2.78-2H17.5a.5.5,0,0,0,.5-.5v-4a.52.52,0,0,0-.5-.52Z"/>
  </g>
</svg>
