<svg xmlns="http://www.w3.org/2000/svg" viewBox="0 0 24 24">
  <title>[icons_24_pt1]</title>
  <g id="webpage">
    <rect id="line3" x="7" y="16" width="6" height="1"/>
    <rect id="line2" x="7" y="14" width="10" height="1"/>
    <rect id="line1" x="7" y="12" width="10" height="1"/>
    <circle id="dot3" cx="13" cy="7" r="1"/>
    <circle id="dot2" cx="10" cy="7" r="1"/>
    <circle id="dot1" cx="7" cy="7" r="1"/>
    <path id="browser" d="M19,3H5A2,2,0,0,0,3,5V19a2,2,0,0,0,2,2H19a2,2,0,0,0,2-2V5A2,2,0,0,0,19,3Zm0,16H5V10H19ZM19,9H5V5H19Z"/>
  </g>
</svg>
