<svg xmlns="http://www.w3.org/2000/svg" viewBox="0 0 32 32">
  <defs>
    <style>
      .cls-1 {
        fill: #ed2024;
        fill-rule: evenodd;
      }
    </style>
  </defs>
  <title>icons_32_pt2</title>
  <g id="youtube">
    <path id="shape" class="cls-1" d="M29.36,9.29a3.49,3.49,0,0,0-2.47-2.46C24.72,6.24,16,6.24,16,6.24s-8.72,0-10.89.58A3.49,3.49,0,0,0,2.64,9.29,36.29,36.29,0,0,0,2.06,16a36.29,36.29,0,0,0,.58,6.71,3.49,3.49,0,0,0,2.47,2.47c2.17.58,10.89.58,10.89.58s8.72,0,10.89-.58a3.49,3.49,0,0,0,2.47-2.47A36.27,36.27,0,0,0,29.94,16,36.28,36.28,0,0,0,29.36,9.29Zm-17,10.89V11.82L19.62,16Z"/>
  </g>
</svg>
