<svg xmlns="http://www.w3.org/2000/svg" viewBox="0 0 24 24">
  <defs>
    <style>
      .cls-1 {
        fill: red;
        fill-rule: evenodd;
      }
    </style>
  </defs>
  <title>[icons_24_pt1]</title>
  <g id="youtube">
    <path id="shape" class="cls-1" d="M21.54,7.21a2.49,2.49,0,0,0-1.76-1.76C18.23,5,12,5,12,5s-6.23,0-7.78.42A2.49,2.49,0,0,0,2.46,7.21,25.93,25.93,0,0,0,2,12a25.92,25.92,0,0,0,.42,4.79,2.49,2.49,0,0,0,1.76,1.76C5.77,19,12,19,12,19s6.23,0,7.78-.42a2.49,2.49,0,0,0,1.76-1.76A25.91,25.91,0,0,0,22,12,25.91,25.91,0,0,0,21.54,7.21ZM10,15V9l5.17,3Z"/>
  </g>
</svg>
